<svg width="400" height="401" viewBox="0 0 400 401" fill="none" xmlns="http://www.w3.org/2000/svg">
<circle cx="200.004" cy="200.33" r="200" fill="#2C302E"/>
<g filter="url(#filter0_i_517_5755)">
<circle cx="199.504" cy="199.83" r="172.5" fill="#FF6B00"/>
</g>
<path d="M199.004 46.3303L200 343" stroke="#F7FFF7" stroke-width="5" stroke-linecap="round"/>
<path d="M239.004 51.3303L164 336" stroke="#F7FFF7" stroke-width="5" stroke-linecap="round"/>
<path d="M276.035 67.3479L130 318" stroke="#F7FFF7" stroke-width="5" stroke-linecap="round"/>
<path d="M307.756 93.0779L100 299" stroke="#F7FFF7" stroke-width="5" stroke-linecap="round"/>
<path d="M332.004 123.33L76 272" stroke="#F7FFF7" stroke-width="5" stroke-linecap="round"/>
<path d="M347.004 161.33L61 234" stroke="#F7FFF7" stroke-width="5" stroke-linecap="round"/>
<path d="M52.0039 161.33L321 236" stroke="#F7FFF7" stroke-width="5" stroke-linecap="round"/>
<path d="M67.0039 123.33L321 272" stroke="#F7FFF7" stroke-width="5" stroke-linecap="round"/>
<path d="M92.0039 92.3304L304 302" stroke="#F7FFF7" stroke-width="5" stroke-linecap="round"/>
<path d="M125.004 68.3304L269 324" stroke="#F7FFF7" stroke-width="5" stroke-linecap="round"/>
<path d="M160.004 52.3304L236 341" stroke="#F7FFF7" stroke-width="5" stroke-linecap="round"/>
<path d="M47.0039 200.33L352.004 200.33" stroke="#F7FFF7" stroke-width="5" stroke-linecap="round"/>
<path d="M190.605 30.5635L209 343" stroke="#F7FFF7" stroke-linecap="round"/>
<path d="M181.734 31.2617L214 346" stroke="#F7FFF7" stroke-linecap="round"/>
<path d="M172.91 32.4233L223 346" stroke="#F7FFF7" stroke-linecap="round"/>
<path d="M164.158 34.0452L228 338" stroke="#F7FFF7" stroke-linecap="round"/>
<path d="M146.971 38.6506L244 338" stroke="#F7FFF7" stroke-linecap="round"/>
<path d="M138.582 41.6216L250 336" stroke="#F7FFF7" stroke-linecap="round"/>
<path d="M130.359 45.0276L257 329" stroke="#F7FFF7" stroke-linecap="round"/>
<path d="M122.324 48.8591L264 329" stroke="#F7FFF7" stroke-linecap="round"/>
<path d="M106.914 57.7564L277 321" stroke="#F7FFF7" stroke-linecap="round"/>
<path d="M99.5801 62.7974L284 318" stroke="#F7FFF7" stroke-linecap="round"/>
<path d="M92.5195 68.2154L292 311" stroke="#F7FFF7" stroke-linecap="round"/>
<path d="M85.752 73.9956L292 302" stroke="#F7FFF7" stroke-linecap="round"/>
<path d="M73.1699 86.5782L304 287" stroke="#F7FFF7" stroke-linecap="round"/>
<path d="M67.3906 93.3457L311 285" stroke="#F7FFF7" stroke-linecap="round"/>
<path d="M61.9707 100.407L308 274" stroke="#F7FFF7" stroke-linecap="round"/>
<path d="M56.9297 107.742L315 276" stroke="#F7FFF7" stroke-linecap="round"/>
<path d="M48.0332 123.152L326 264" stroke="#F7FFF7" stroke-linecap="round"/>
<path d="M44.2012 131.185L323 253" stroke="#F7FFF7" stroke-linecap="round"/>
<path d="M40.7949 139.408L332 250" stroke="#F7FFF7" stroke-linecap="round"/>
<path d="M37.8242 147.797L328 238" stroke="#F7FFF7" stroke-linecap="round"/>
<path d="M33.2188 164.985L311 222" stroke="#F7FFF7" stroke-linecap="round"/>
<path d="M31.5977 173.737L342 222" stroke="#F7FFF7" stroke-linecap="round"/>
<path d="M30.4336 182.561L342 214" stroke="#F7FFF7" stroke-linecap="round"/>
<path d="M29.7363 191.433L345 208" stroke="#F7FFF7" stroke-linecap="round"/>
<path d="M61 210L369.27 191.433" stroke="#F7FFF7" stroke-linecap="round"/>
<path d="M57 214L368.571 182.561" stroke="#F7FFF7" stroke-linecap="round"/>
<path d="M65 220L367.412 173.737" stroke="#F7FFF7" stroke-linecap="round"/>
<path d="M65 229L365.789 164.986" stroke="#F7FFF7" stroke-linecap="round"/>
<path d="M67 240L361.183 147.798" stroke="#F7FFF7" stroke-linecap="round"/>
<path d="M69 250L358.212 139.408" stroke="#F7FFF7" stroke-linecap="round"/>
<path d="M67 256L354.807 131.185" stroke="#F7FFF7" stroke-linecap="round"/>
<path d="M71 260L350.975 123.152" stroke="#F7FFF7" stroke-linecap="round"/>
<path d="M80 274L342.078 107.742" stroke="#F7FFF7" stroke-linecap="round"/>
<path d="M86 282L337.036 100.407" stroke="#F7FFF7" stroke-linecap="round"/>
<path d="M92 289L331.62 93.3464" stroke="#F7FFF7" stroke-linecap="round"/>
<path d="M95 292L325.839 86.5787" stroke="#F7FFF7" stroke-linecap="round"/>
<path d="M105 307L313.256 73.9964" stroke="#F7FFF7" stroke-linecap="round"/>
<path d="M119 307L306.488 68.2163" stroke="#F7FFF7" stroke-linecap="round"/>
<path d="M130 299L299.427 62.7981" stroke="#F7FFF7" stroke-linecap="round"/>
<path d="M125 314L292.091 57.7569" stroke="#F7FFF7" stroke-linecap="round"/>
<path d="M136 327L276.681 48.8599" stroke="#F7FFF7" stroke-linecap="round"/>
<path d="M147 327L268.65 45.0282" stroke="#F7FFF7" stroke-linecap="round"/>
<path d="M148 336L260.427 41.6223" stroke="#F7FFF7" stroke-linecap="round"/>
<path d="M147 336L260.427 41.6223" stroke="#F7FFF7" stroke-linecap="round"/>
<path d="M154 338L252.036 38.6514" stroke="#F7FFF7" stroke-linecap="round"/>
<path d="M170 341L234.848 34.0459" stroke="#F7FFF7" stroke-linecap="round"/>
<path d="M177 341L226.098 32.4239" stroke="#F7FFF7" stroke-linecap="round"/>
<path d="M185 341L217.274 31.2621" stroke="#F7FFF7" stroke-linecap="round"/>
<path d="M194 346L208.4 30.5637" stroke="#F7FFF7" stroke-linecap="round"/>
<path d="M344.004 200.33L54.0039 200.33" stroke="#F7FFF7" stroke-width="5" stroke-linecap="round"/>
<path d="M196.164 41.4583C195.78 41.4583 195.391 41.4157 194.996 41.3303C194.601 41.245 194.255 41.1197 193.956 40.9543L194.596 39.5623C194.836 39.701 195.087 39.805 195.348 39.8743C195.615 39.9383 195.865 39.9703 196.1 39.9703C196.313 39.9703 196.487 39.9357 196.62 39.8663C196.759 39.7917 196.828 39.6823 196.828 39.5383C196.828 39.4157 196.777 39.3223 196.676 39.2583C196.575 39.189 196.404 39.1543 196.164 39.1543H195.42V37.9943L196.868 36.5223L197.036 37.1543H194.244V35.7303H198.42V36.8903L196.972 38.3623L196.068 37.8503H196.564C197.268 37.8503 197.804 38.0077 198.172 38.3223C198.54 38.637 198.724 39.0423 198.724 39.5383C198.724 39.8583 198.633 40.165 198.452 40.4583C198.276 40.7517 197.999 40.9917 197.62 41.1783C197.247 41.365 196.761 41.4583 196.164 41.4583ZM201.686 41.4583C201.19 41.4583 200.75 41.3437 200.366 41.1143C199.987 40.885 199.689 40.5517 199.47 40.1143C199.257 39.677 199.15 39.149 199.15 38.5303C199.15 37.9117 199.257 37.3837 199.47 36.9463C199.689 36.509 199.987 36.1757 200.366 35.9463C200.75 35.717 201.19 35.6023 201.686 35.6023C202.182 35.6023 202.619 35.717 202.998 35.9463C203.382 36.1757 203.681 36.509 203.894 36.9463C204.113 37.3837 204.222 37.9117 204.222 38.5303C204.222 39.149 204.113 39.677 203.894 40.1143C203.681 40.5517 203.382 40.885 202.998 41.1143C202.619 41.3437 202.182 41.4583 201.686 41.4583ZM201.686 39.9463C201.809 39.9463 201.918 39.9037 202.014 39.8183C202.11 39.733 202.185 39.5863 202.238 39.3783C202.297 39.1703 202.326 38.8877 202.326 38.5303C202.326 38.1677 202.297 37.885 202.238 37.6823C202.185 37.4743 202.11 37.3277 202.014 37.2423C201.918 37.157 201.809 37.1143 201.686 37.1143C201.563 37.1143 201.454 37.157 201.358 37.2423C201.262 37.3277 201.185 37.4743 201.126 37.6823C201.073 37.885 201.046 38.1677 201.046 38.5303C201.046 38.8877 201.073 39.1703 201.126 39.3783C201.185 39.5863 201.262 39.733 201.358 39.8183C201.454 39.9037 201.563 39.9463 201.686 39.9463Z" fill="#F7FFF7"/>
<path d="M237.575 45.7404C237.204 45.641 236.839 45.4991 236.479 45.3145C236.12 45.1299 235.818 44.9191 235.572 44.6821L236.551 43.5032C236.747 43.6993 236.962 43.8646 237.196 43.9992C237.437 44.13 237.671 44.2258 237.898 44.2866C238.104 44.3418 238.28 44.3531 238.427 44.3207C238.58 44.2845 238.676 44.1968 238.713 44.0577C238.745 43.9392 238.72 43.8359 238.638 43.7479C238.559 43.6547 238.403 43.577 238.171 43.5149L237.452 43.3224L237.752 42.2019L239.532 41.1548L239.531 41.8088L236.834 41.0861L237.202 39.7107L241.236 40.7915L240.936 41.912L239.156 42.959L238.416 42.2305L238.895 42.3589C239.575 42.5411 240.052 42.8318 240.326 43.231C240.6 43.6302 240.673 44.0693 240.544 44.5484C240.461 44.8575 240.294 45.1303 240.043 45.3667C239.797 45.6045 239.467 45.7645 239.053 45.8468C238.644 45.9305 238.151 45.895 237.575 45.7404ZM242.331 47.0148C241.96 46.9154 241.595 46.7735 241.236 46.5889C240.876 46.4043 240.574 46.1935 240.328 45.9565L241.307 44.7776C241.503 44.9737 241.718 45.139 241.952 45.2736C242.188 45.4031 242.42 45.4982 242.646 45.5589C242.852 45.6141 243.032 45.6236 243.185 45.5874C243.339 45.5511 243.434 45.4635 243.471 45.3244C243.492 45.2471 243.487 45.1739 243.455 45.1048C243.426 45.0306 243.356 44.9621 243.245 44.8995C243.14 44.8382 242.977 44.7779 242.755 44.7185L241.187 44.2982L242.337 41.0865L245.93 42.0493L245.562 43.4248L242.61 42.6339L243.739 42.0998L243.015 44.1504L242.305 43.1236L243.564 43.4611C244.1 43.6046 244.507 43.7965 244.785 44.0366C245.068 44.2781 245.247 44.5496 245.321 44.8509C245.401 45.1486 245.398 45.4571 245.313 45.7765C245.227 46.0959 245.058 46.3789 244.804 46.6256C244.556 46.8686 244.225 47.0338 243.81 47.1212C243.401 47.2049 242.908 47.1694 242.331 47.0148Z" fill="#F7FFF7"/>
<path d="M274.038 59.5717L274.638 58.5324L278.415 56.7413L280.092 57.7093L276.391 59.5444L275.761 58.8758L279.516 61.0438L278.784 62.3117L274.038 59.5717ZM276.073 61.855L276.553 61.0237L277.333 59.7838L277.761 59.0425L279.299 59.9305L277.659 62.771L276.073 61.855ZM280.664 64.6536C280.234 64.4056 279.911 64.0862 279.693 63.6956C279.479 63.3077 279.387 62.8697 279.417 62.3816C279.451 61.8962 279.622 61.3856 279.932 60.8498C280.241 60.3141 280.597 59.9101 281.001 59.638C281.409 59.3686 281.834 59.2293 282.277 59.22C282.724 59.2134 283.162 59.3341 283.592 59.5821C284.021 59.8301 284.343 60.1481 284.556 60.536C284.774 60.9266 284.866 61.3646 284.832 61.85C284.803 62.3381 284.633 62.8501 284.324 63.3858C284.015 63.9216 283.656 64.3242 283.248 64.5936C282.845 64.8657 282.419 65.005 281.972 65.0116C281.53 65.0209 281.093 64.9016 280.664 64.6536ZM281.42 63.3441C281.526 63.4055 281.642 63.4232 281.768 63.3973C281.894 63.3714 282.032 63.2817 282.182 63.1282C282.337 62.9774 282.503 62.7473 282.682 62.4378C282.863 62.1238 282.979 61.8643 283.03 61.6594C283.088 61.4526 283.096 61.2883 283.056 61.1664C283.015 61.0445 282.942 60.9529 282.836 60.8915C282.73 60.8302 282.614 60.8125 282.488 60.8384C282.362 60.8643 282.222 60.9526 282.067 61.1034C281.919 61.2523 281.755 61.4838 281.574 61.7978C281.395 62.1073 281.277 62.3654 281.219 62.5722C281.166 62.7817 281.159 62.9474 281.2 63.0693C281.24 63.1912 281.314 63.2828 281.42 63.3441Z" fill="#F7FFF7"/>
<path d="M308.228 84.4385L309.077 83.59L313.189 82.8376L314.558 84.2066L310.508 85.0211L310.072 84.2122L313.138 87.2782L312.103 88.3134L308.228 84.4385ZM309.603 87.1708L310.282 86.4919L311.356 85.4963L311.962 84.891L313.218 86.1469L310.898 88.4662L309.603 87.1708ZM312.946 90.6945C312.674 90.423 312.429 90.1175 312.21 89.7781C311.991 89.4387 311.835 89.1049 311.741 88.7768L313.178 88.2451C313.249 88.5128 313.353 88.7636 313.489 88.9974C313.628 89.2275 313.781 89.4255 313.947 89.5914C314.098 89.7422 314.249 89.8403 314.399 89.8856C314.55 89.9308 314.677 89.9025 314.778 89.8007C314.835 89.7441 314.867 89.6781 314.875 89.6027C314.886 89.5235 314.859 89.4292 314.795 89.3199C314.735 89.2143 314.624 89.0804 314.462 88.9182L313.313 87.7699L315.915 85.5637L318.546 88.1942L317.539 89.2011L315.378 87.0402L316.623 87.142L314.971 88.5562L314.869 87.3117L315.791 88.2338C316.183 88.626 316.44 88.9955 316.56 89.3425C316.685 89.6932 316.704 90.0175 316.617 90.3155C316.538 90.6134 316.381 90.8793 316.147 91.1131C315.914 91.3469 315.625 91.5072 315.282 91.5939C314.946 91.6807 314.577 91.658 314.173 91.526C313.777 91.3941 313.368 91.1169 312.946 90.6945Z" fill="#F7FFF7"/>
<path d="M333.749 119.341C333.557 119.009 333.399 118.65 333.276 118.266C333.152 117.881 333.088 117.518 333.081 117.177L334.607 117.035C334.607 117.312 334.642 117.582 334.713 117.843C334.788 118.101 334.884 118.332 335.002 118.535C335.108 118.72 335.229 118.853 335.363 118.936C335.497 119.019 335.626 119.024 335.751 118.952C335.82 118.912 335.868 118.857 335.895 118.786C335.926 118.712 335.925 118.614 335.892 118.492C335.861 118.375 335.788 118.216 335.673 118.018L334.861 116.611L337.946 115.154L339.806 118.376L338.572 119.088L337.044 116.441L338.22 116.861L336.259 117.8L336.482 116.571L337.134 117.701C337.412 118.181 337.564 118.604 337.59 118.971C337.62 119.342 337.554 119.66 337.393 119.925C337.24 120.193 337.02 120.409 336.733 120.574C336.447 120.74 336.127 120.82 335.773 120.815C335.426 120.812 335.075 120.694 334.719 120.462C334.371 120.232 334.048 119.858 333.749 119.341ZM336.486 124.081C336.238 123.651 336.117 123.213 336.123 122.766C336.133 122.323 336.272 121.898 336.542 121.49C336.814 121.087 337.218 120.73 337.753 120.421C338.289 120.111 338.8 119.94 339.285 119.906C339.773 119.877 340.211 119.969 340.599 120.182C340.99 120.4 341.309 120.723 341.557 121.153C341.805 121.583 341.924 122.019 341.915 122.461C341.908 122.908 341.769 123.334 341.497 123.737C341.228 124.145 340.825 124.504 340.289 124.813C339.754 125.123 339.242 125.292 338.754 125.321C338.268 125.355 337.83 125.263 337.439 125.045C337.052 124.832 336.734 124.511 336.486 124.081ZM337.795 123.325C337.856 123.431 337.948 123.505 338.07 123.545C338.192 123.586 338.356 123.577 338.563 123.519C338.772 123.466 339.032 123.35 339.341 123.171C339.655 122.99 339.886 122.823 340.032 122.671C340.185 122.521 340.275 122.383 340.301 122.257C340.327 122.131 340.309 122.015 340.248 121.909C340.186 121.803 340.095 121.729 339.973 121.689C339.851 121.649 339.685 121.655 339.476 121.708C339.274 121.763 339.015 121.881 338.701 122.063C338.392 122.241 338.16 122.406 338.007 122.556C337.856 122.711 337.768 122.851 337.742 122.977C337.716 123.103 337.734 123.219 337.795 123.325Z" fill="#F7FFF7"/>
<path d="M350.1 157.312C350.001 156.941 349.941 156.554 349.921 156.15C349.902 155.747 349.933 155.38 350.015 155.049L351.525 155.306C351.454 155.574 351.418 155.843 351.419 156.114C351.425 156.383 351.458 156.63 351.519 156.857C351.574 157.063 351.655 157.223 351.763 157.338C351.871 157.453 351.995 157.491 352.134 157.454C352.211 157.433 352.272 157.392 352.316 157.331C352.366 157.268 352.39 157.173 352.389 157.046C352.39 156.925 352.36 156.753 352.301 156.531L351.881 154.963L355.237 154.353L356.2 157.947L354.825 158.315L354.034 155.363L355.061 156.074L352.923 156.472L353.457 155.344L353.794 156.603C353.938 157.139 353.975 157.587 353.906 157.948C353.839 158.314 353.693 158.605 353.469 158.819C353.251 159.038 352.983 159.19 352.663 159.275C352.344 159.361 352.014 159.355 351.673 159.259C351.339 159.166 351.031 158.962 350.747 158.646C350.47 158.333 350.255 157.889 350.1 157.312ZM351.372 162.058C351.272 161.687 351.213 161.3 351.193 160.897C351.173 160.494 351.205 160.126 351.287 159.795L352.797 160.053C352.726 160.321 352.69 160.59 352.691 160.86C352.696 161.129 352.73 161.377 352.79 161.604C352.846 161.81 352.927 161.97 353.035 162.085C353.143 162.199 353.267 162.238 353.406 162.201C353.483 162.18 353.544 162.139 353.588 162.077C353.638 162.014 353.662 161.92 353.661 161.793C353.662 161.671 353.632 161.5 353.573 161.278L353.153 159.709L356.509 159.1L357.472 162.693L356.096 163.062L355.305 160.11L356.332 160.82L354.195 161.219L354.729 160.09L355.066 161.35C355.21 161.886 355.247 162.334 355.178 162.695C355.111 163.061 354.965 163.351 354.741 163.566C354.523 163.784 354.255 163.936 353.935 164.022C353.616 164.107 353.286 164.102 352.945 164.005C352.611 163.913 352.303 163.708 352.019 163.392C351.742 163.08 351.526 162.635 351.372 162.058Z" fill="#F7FFF7"/>
<path d="M154.185 48.5937L153.885 47.4733L155.356 45.1412C155.448 44.9896 155.51 44.8624 155.543 44.7596C155.582 44.6555 155.602 44.5672 155.605 44.4947C155.606 44.417 155.598 44.3473 155.582 44.2855C155.546 44.1516 155.475 44.0603 155.368 44.0116C155.259 43.9578 155.118 43.9544 154.943 44.0013C154.783 44.0441 154.643 44.1286 154.522 44.2548C154.4 44.3759 154.319 44.5299 154.281 44.7168L152.721 44.3977C152.818 43.9743 153.031 43.5942 153.36 43.2575C153.69 42.9208 154.145 42.6744 154.727 42.5184C155.155 42.4039 155.552 42.372 155.919 42.4227C156.286 42.4735 156.596 42.6002 156.849 42.8029C157.102 43.0057 157.275 43.2796 157.368 43.6248C157.415 43.7999 157.438 43.9813 157.439 44.1689C157.445 44.3551 157.407 44.564 157.325 44.7956C157.242 45.0221 157.101 45.2891 156.902 45.5965L155.792 47.3267L155.336 46.7697L158.142 46.0181L158.52 47.4322L154.185 48.5937ZM160.875 46.9338C160.504 47.0332 160.117 47.0928 159.714 47.1125C159.31 47.1322 158.943 47.1009 158.612 47.0185L158.87 45.5082C159.137 45.5801 159.406 45.6157 159.677 45.615C159.946 45.6092 160.194 45.5759 160.42 45.5152C160.626 45.4599 160.787 45.3783 160.901 45.2703C161.016 45.1623 161.055 45.0387 161.017 44.8997C160.997 44.8224 160.955 44.7616 160.894 44.7174C160.831 44.668 160.736 44.6437 160.609 44.6445C160.488 44.644 160.316 44.6734 160.095 44.7328L158.526 45.1531L157.916 41.7965L161.51 40.8337L161.878 42.2091L158.926 43.0001L159.637 41.9732L160.036 44.1108L158.907 43.5768L160.167 43.2393C160.702 43.0957 161.151 43.0584 161.511 43.1274C161.877 43.195 162.168 43.3408 162.382 43.5649C162.601 43.7824 162.753 44.0509 162.838 44.3703C162.924 44.6897 162.918 45.0197 162.822 45.3603C162.729 45.6943 162.525 46.0031 162.209 46.2865C161.896 46.5634 161.452 46.7792 160.875 46.9338Z" fill="#F7FFF7"/>
<path d="M86.3679 91.6441L82.8719 88.1482L83.9863 88.1199L82.7362 89.3701L81.7292 88.3631L83.7431 86.3493L87.7029 90.3091L86.3679 91.6441ZM89.7052 88.4878C89.4337 88.7593 89.1282 89.0044 88.7888 89.2232C88.4494 89.4419 88.1157 89.5984 87.7876 89.6927L87.2558 88.2558C87.5236 88.1842 87.7744 88.0805 88.0082 87.9447C88.2382 87.8052 88.4362 87.6524 88.6021 87.4865C88.753 87.3357 88.851 87.1848 88.8963 87.034C88.9416 86.8831 88.9133 86.7568 88.8115 86.6549C88.7549 86.5984 88.6889 86.5663 88.6135 86.5588C88.5343 86.5475 88.44 86.5739 88.3306 86.638C88.225 86.6983 88.0911 86.8096 87.929 86.9717L86.7806 88.1201L84.5745 85.5179L87.2049 82.8875L88.2118 83.8944L86.0509 86.0553L86.1527 84.8108L87.5669 86.4626L86.3224 86.5644L87.2445 85.6424C87.6367 85.2502 88.0063 84.9937 88.3532 84.873C88.704 84.7486 89.0283 84.7297 89.3262 84.8165C89.6242 84.8957 89.89 85.0522 90.1238 85.286C90.3577 85.5198 90.5179 85.8083 90.6047 86.1515C90.6914 86.4871 90.6688 86.8567 90.5368 87.2602C90.4048 87.6562 90.1276 88.0654 89.7052 88.4878Z" fill="#F7FFF7"/>
<path d="M61.5688 124.579L57.2872 122.107L58.3563 121.791L57.4723 123.322L56.2391 122.61L57.6631 120.144L62.5128 122.944L61.5688 124.579ZM64.2356 120.216C63.9876 120.646 63.6683 120.969 63.2776 121.187C62.8897 121.401 62.4517 121.493 61.9636 121.463C61.4782 121.429 60.9676 121.258 60.4318 120.948C59.8961 120.639 59.4921 120.283 59.22 119.879C58.9506 119.471 58.8113 119.046 58.802 118.603C58.7954 118.156 58.9161 117.718 59.1641 117.288C59.4121 116.859 59.7301 116.537 60.118 116.324C60.5086 116.106 60.9466 116.014 61.432 116.048C61.9201 116.077 62.4321 116.247 62.9678 116.556C63.5036 116.865 63.9062 117.224 64.1756 117.632C64.4477 118.035 64.587 118.461 64.5936 118.908C64.6029 119.351 64.4836 119.787 64.2356 120.216ZM62.9261 119.46C62.9875 119.354 63.0052 119.238 62.9793 119.112C62.9534 118.986 62.8637 118.848 62.7102 118.698C62.5594 118.543 62.3293 118.377 62.0198 118.198C61.7058 118.017 61.4463 117.901 61.2414 117.85C61.0346 117.792 60.8703 117.784 60.7484 117.824C60.6265 117.865 60.5349 117.938 60.4735 118.044C60.4122 118.15 60.3945 118.266 60.4204 118.392C60.4463 118.518 60.5346 118.658 60.6854 118.813C60.8343 118.961 61.0658 119.125 61.3798 119.306C61.6893 119.485 61.9474 119.603 62.1542 119.661C62.3637 119.714 62.5294 119.721 62.6513 119.68C62.7732 119.64 62.8648 119.566 62.9261 119.46Z" fill="#F7FFF7"/>
<path d="M47.4368 160.092C47.3374 160.463 47.1954 160.828 47.0108 161.187C46.8263 161.546 46.6155 161.849 46.3785 162.095L45.1996 161.116C45.3956 160.92 45.5609 160.705 45.6956 160.47C45.825 160.235 45.9201 160.003 45.9808 159.777C46.0361 159.571 46.0455 159.391 46.0093 159.238C45.9731 159.084 45.8854 158.989 45.7463 158.952C45.6691 158.931 45.5959 158.936 45.5268 158.968C45.4525 158.997 45.3841 159.067 45.3214 159.178C45.2602 159.283 45.1998 159.446 45.1405 159.667L44.7202 161.236L41.5085 160.086L42.4713 156.492L43.8468 156.861L43.0558 159.813L42.5217 158.684L44.5724 159.408L43.5455 160.118L43.883 158.858C44.0266 158.323 44.2184 157.916 44.4586 157.638C44.7001 157.355 44.9715 157.176 45.2729 157.102C45.5705 157.022 45.879 157.025 46.1984 157.11C46.5178 157.196 46.8009 157.365 47.0476 157.619C47.2905 157.867 47.4557 158.198 47.5432 158.613C47.6268 159.022 47.5914 159.515 47.4368 160.092Z" fill="#F7FFF7"/>
<path d="M116.491 65.44L115.911 64.4354L116.728 61.8022C116.777 61.632 116.805 61.4929 116.81 61.3851C116.82 61.2746 116.817 61.184 116.801 61.1132C116.782 61.0379 116.757 60.9725 116.725 60.9171C116.655 60.797 116.563 60.7273 116.447 60.708C116.328 60.684 116.191 60.7174 116.034 60.8081C115.89 60.8907 115.777 61.0087 115.693 61.1618C115.606 61.3104 115.569 61.4799 115.58 61.6704L113.991 61.7658C113.974 61.3319 114.082 60.9097 114.313 60.4992C114.544 60.0887 114.92 59.7328 115.442 59.4314C115.825 59.2101 116.201 59.0764 116.568 59.0305C116.936 58.9845 117.268 59.0267 117.565 59.157C117.862 59.2873 118.1 59.5072 118.279 59.8167C118.369 59.9737 118.439 60.1428 118.488 60.3238C118.542 60.5022 118.56 60.7138 118.541 60.9586C118.519 61.1989 118.452 61.4932 118.339 61.8417L117.715 63.8003L117.131 63.3802L119.646 61.9282L120.378 63.196L116.491 65.44ZM122.973 61.8453C122.544 62.0933 122.105 62.214 121.658 62.2074C121.215 62.1981 120.79 62.0587 120.382 61.7893C119.979 61.5173 119.622 61.1133 119.313 60.5775C119.004 60.0418 118.832 59.5312 118.798 59.0458C118.769 58.5577 118.861 58.1197 119.074 57.7317C119.292 57.3411 119.616 57.0218 120.045 56.7738C120.475 56.5258 120.911 56.4065 121.353 56.4157C121.801 56.4223 122.226 56.5617 122.629 56.8338C123.037 57.1032 123.396 57.5058 123.705 58.0415C124.015 58.5773 124.184 59.0893 124.213 59.5773C124.247 60.0627 124.155 60.5007 123.937 60.8914C123.724 61.2793 123.403 61.5973 122.973 61.8453ZM122.217 60.5358C122.323 60.4745 122.397 60.3829 122.437 60.261C122.478 60.1391 122.469 59.9747 122.411 59.7679C122.358 59.5585 122.242 59.299 122.063 58.9895C121.882 58.6755 121.715 58.4453 121.563 58.2992C121.413 58.1457 121.275 58.056 121.149 58.0301C121.023 58.0042 120.907 58.0219 120.801 58.0833C120.695 58.1446 120.622 58.2362 120.581 58.3581C120.541 58.48 120.547 58.6457 120.6 58.8552C120.655 59.0573 120.774 59.3155 120.955 59.6295C121.134 59.939 121.298 60.1705 121.448 60.3239C121.603 60.4747 121.743 60.5631 121.869 60.589C121.995 60.6149 122.111 60.5972 122.217 60.5358Z" fill="#F7FFF7"/>
<path d="M42.0759 204.792C42.0759 205.124 42.0219 205.432 41.9139 205.716C41.8059 205.996 41.6539 206.24 41.4579 206.448C41.2619 206.652 41.0319 206.812 40.7679 206.928C40.5039 207.04 40.2159 207.096 39.9039 207.096C39.5919 207.096 39.3039 207.04 39.0399 206.928C38.7759 206.812 38.5459 206.65 38.3499 206.442C38.1539 206.234 38.0019 205.99 37.8939 205.71C37.7859 205.43 37.7319 205.126 37.7319 204.798C37.7319 204.466 37.7859 204.162 37.8939 203.886C38.0019 203.606 38.1539 203.364 38.3499 203.16C38.5459 202.952 38.7759 202.79 39.0399 202.674C39.2999 202.558 39.5879 202.5 39.9039 202.5C40.2159 202.5 40.5059 202.558 40.7739 202.674C41.0379 202.79 41.2679 202.952 41.4639 203.16C41.6559 203.364 41.8059 203.606 41.9139 203.886C42.0219 204.162 42.0759 204.464 42.0759 204.792ZM41.2479 204.798C41.2479 204.61 41.2159 204.438 41.1519 204.282C41.0879 204.122 40.9959 203.982 40.8759 203.862C40.7559 203.742 40.6139 203.65 40.4499 203.586C40.2859 203.518 40.1039 203.484 39.9039 203.484C39.7039 203.484 39.5219 203.518 39.3579 203.586C39.1939 203.65 39.0519 203.742 38.9319 203.862C38.8119 203.978 38.7199 204.116 38.6559 204.276C38.5919 204.436 38.5599 204.61 38.5599 204.798C38.5599 204.986 38.5919 205.16 38.6559 205.32C38.7199 205.476 38.8119 205.614 38.9319 205.734C39.0519 205.854 39.1939 205.948 39.3579 206.016C39.5219 206.08 39.7039 206.112 39.9039 206.112C40.0999 206.112 40.2819 206.08 40.4499 206.016C40.6139 205.948 40.7559 205.856 40.8759 205.74C40.9959 205.62 41.0879 205.48 41.1519 205.32C41.2159 205.16 41.2479 204.986 41.2479 204.798ZM39.6939 200.87V198.854H40.4739V200.87H39.6939ZM42.0039 200.798V201.77H37.8039V198.596H38.5839V200.798H42.0039ZM39.6939 197.038V195.022H40.4739V197.038H39.6939ZM42.0039 196.966V197.938H37.8039V194.764H38.5839V196.966H42.0039Z" fill="#F7FFF7"/>
<path d="M357.004 193.828L361.204 193.828L361.204 194.632L358.24 196.42L358.24 195.994L361.204 197.752L361.204 198.55L357.004 198.562L357.004 197.65L359.806 197.644L359.806 197.812L357.448 196.408L357.448 195.97L359.806 194.536L359.806 194.74L357.004 194.74L357.004 193.828ZM357.004 199.007L361.204 200.879L361.204 201.839L357.004 203.717L357.004 202.697L360.712 201.161L360.712 201.545L357.004 200.003L357.004 199.007ZM357.904 199.943L358.642 200.201L358.642 202.361L357.904 202.625L357.904 199.943ZM357.004 203.45L359.494 205.256L358.786 205.256L361.204 203.528L361.204 204.632L359.518 205.826L359.512 205.364L361.204 206.54L361.204 207.596L358.828 205.88L359.524 205.88L357.004 207.698L357.004 206.576L358.786 205.34L358.786 205.784L357.004 204.566L357.004 203.45Z" fill="#F7FFF7"/>
<path d="M200 50.3304C219.698 50.3304 239.204 54.2103 257.403 61.7485C275.601 69.2867 292.137 80.3356 306.066 94.2644C319.995 108.193 331.044 124.729 338.582 142.928C346.12 161.127 350 180.632 350 200.33C350 220.029 346.12 239.534 338.582 257.733C331.044 275.932 319.995 292.468 306.066 306.396C292.137 320.325 275.601 331.374 257.403 338.912C239.204 346.451 219.698 350.33 200 350.33L200 200.33L200 50.3304Z" fill="#DB5375"/>
<path d="M200.004 350.33C180.306 350.33 160.8 346.45 142.601 338.912C124.403 331.374 107.867 320.325 93.9379 306.396C80.0091 292.467 68.9602 275.932 61.422 257.733C53.8838 239.534 50.0039 220.029 50.0039 200.33C50.0039 180.632 53.8838 161.127 61.422 142.928C68.9602 124.729 80.0091 108.193 93.9379 94.2642C107.867 80.3354 124.403 69.2865 142.601 61.7483C160.8 54.2101 180.306 50.3303 200.004 50.3303L200.004 200.33L200.004 350.33Z" fill="#3B8EA5"/>
<g filter="url(#filter1_d_517_5755)">
<circle cx="200.504" cy="200.83" r="120.5" fill="#2C302E"/>
</g>
<defs>
<filter id="filter0_i_517_5755" x="27.0039" y="27.3304" width="345" height="345" filterUnits="userSpaceOnUse" color-interpolation-filters="sRGB">
<feFlood flood-opacity="0" result="BackgroundImageFix"/>
<feBlend mode="normal" in="SourceGraphic" in2="BackgroundImageFix" result="shape"/>
<feColorMatrix in="SourceAlpha" type="matrix" values="0 0 0 0 0 0 0 0 0 0 0 0 0 0 0 0 0 0 127 0" result="hardAlpha"/>
<feMorphology radius="3" operator="erode" in="SourceAlpha" result="effect1_innerShadow_517_5755"/>
<feOffset/>
<feGaussianBlur stdDeviation="5.2"/>
<feComposite in2="hardAlpha" operator="arithmetic" k2="-1" k3="1"/>
<feColorMatrix type="matrix" values="0 0 0 0 0 0 0 0 0 0 0 0 0 0 0 0 0 0 0.25 0"/>
<feBlend mode="normal" in2="shape" result="effect1_innerShadow_517_5755"/>
</filter>
<filter id="filter1_d_517_5755" x="52.2039" y="51.5304" width="296.6" height="296.6" filterUnits="userSpaceOnUse" color-interpolation-filters="sRGB">
<feFlood flood-opacity="0" result="BackgroundImageFix"/>
<feColorMatrix in="SourceAlpha" type="matrix" values="0 0 0 0 0 0 0 0 0 0 0 0 0 0 0 0 0 0 127 0" result="hardAlpha"/>
<feMorphology radius="7" operator="dilate" in="SourceAlpha" result="effect1_dropShadow_517_5755"/>
<feOffset dy="-1"/>
<feGaussianBlur stdDeviation="10.4"/>
<feComposite in2="hardAlpha" operator="out"/>
<feColorMatrix type="matrix" values="0 0 0 0 0 0 0 0 0 0 0 0 0 0 0 0 0 0 0.25 0"/>
<feBlend mode="normal" in2="BackgroundImageFix" result="effect1_dropShadow_517_5755"/>
<feBlend mode="normal" in="SourceGraphic" in2="effect1_dropShadow_517_5755" result="shape"/>
</filter>
</defs>
</svg>
