<svg width="400" height="401" viewBox="0 0 400 401" fill="none" xmlns="http://www.w3.org/2000/svg">
<path fill-rule="evenodd" clip-rule="evenodd" d="M200 401C310.457 401 400 311.457 400 201C400 90.5431 310.457 1 200 1C89.5431 1 0 90.5431 0 201C0 311.457 89.5431 401 200 401ZM200.5 374C295.769 374 373 296.769 373 201.5C373 106.231 295.769 29 200.5 29C105.231 29 28 106.231 28 201.5C28 296.769 105.231 374 200.5 374Z" fill="#2C302E"/>
<path d="M90.4993 158L29.4993 183.5C22.0377 265.732 70.6899 362.384 198.999 374.5C327.792 369.472 377.427 275.586 373.499 183.5L310.999 158C272.651 239.027 276.415 287.471 198.999 301.5C115.712 281.712 122.299 229.348 90.4993 158Z" fill="#2C302E" stroke="#2C302E" stroke-width="5" stroke-linecap="round"/>
<path d="M199.999 36L181 2C195.907 0.213488 204.238 0.239119 219 2L199.999 36Z" fill="#F7FFF7"/>
<path d="M194.513 109.333C195.451 110.107 196.562 110.65 197.755 110.92C197.869 110.956 197.946 110.809 197.869 110.736C195.314 108.337 196.718 105.74 197.755 104.569C198.494 103.734 199.547 102.357 199.47 100.511C199.47 100.326 199.662 100.178 199.814 100.29C201.263 101.028 202.254 102.652 202.521 103.98C202.941 103.575 203.094 102.947 203.094 102.394C203.094 102.209 203.322 102.061 203.513 102.209C204.886 103.427 207.25 107.561 203.436 110.808C203.361 110.883 203.436 111.031 203.513 110.994C204.669 110.696 205.757 110.182 206.716 109.48C212.932 104.755 208.889 96.3763 206.258 93.6085C205.915 93.2756 205.305 93.4972 205.305 93.977C205.267 94.9745 204.962 96.0812 204.162 96.8193C203.551 94.3099 201.518 91.4591 198.62 90.0564C198.239 89.8716 197.782 90.1666 197.82 90.5729C197.895 94.0064 195.619 96.1925 193.636 99.0348C191.882 101.581 190.738 106.269 194.513 109.333Z" fill="#FF6B00"/>
<path d="M203.043 13.9629L201.707 14.6833L201.709 14.4233L203.034 15.1529L202.538 15.9693L201.304 15.2204L201.444 15.1314L201.454 16.5215L200.514 16.5147L200.534 15.1248L200.674 15.2158L199.428 15.9469L198.954 15.1234L200.289 14.413L200.287 14.673L198.963 13.9335L199.449 13.1169L200.683 13.8759L200.543 13.9549L200.543 12.5648L201.483 12.5716L201.453 13.9614L201.313 13.8804L202.559 13.1394L203.043 13.9629Z" fill="#F7FFF7"/>
<path d="M188.202 20.5246C187.649 20.5589 187.135 20.504 186.659 20.3599C186.188 20.2087 185.77 19.9808 185.404 19.6763C185.044 19.3713 184.754 19.0052 184.534 18.578C184.321 18.1504 184.197 17.6738 184.165 17.1482C184.132 16.6225 184.195 16.1343 184.355 15.6836C184.52 15.2325 184.766 14.8331 185.092 14.4856C185.418 14.1381 185.808 13.8634 186.263 13.6615C186.718 13.453 187.224 13.3313 187.783 13.2967C188.402 13.2583 188.964 13.3269 189.469 13.5026C189.981 13.6779 190.419 13.9514 190.783 14.3229L189.804 15.3455C189.535 15.095 189.246 14.9158 188.939 14.808C188.631 14.6935 188.301 14.6472 187.949 14.6691C187.609 14.6901 187.303 14.7625 187.03 14.8864C186.757 15.0102 186.524 15.1783 186.33 15.3907C186.143 15.6027 186.001 15.8486 185.905 16.1284C185.816 16.4078 185.781 16.7139 185.802 17.0466C185.822 17.3726 185.894 17.6687 186.017 17.9349C186.147 18.2007 186.318 18.4306 186.531 18.6245C186.749 18.8113 186.999 18.9495 187.278 19.039C187.564 19.1281 187.873 19.1623 188.206 19.1417C188.525 19.1219 188.832 19.0528 189.125 18.9344C189.424 18.8089 189.71 18.6142 189.98 18.3503L190.971 19.4611C190.61 19.7707 190.181 20.0178 189.685 20.2022C189.195 20.3862 188.701 20.4937 188.202 20.5246ZM189.481 19.3431L189.318 16.7182L190.795 16.6265L190.971 19.4611L189.481 19.3431Z" fill="#F7FFF7"/>
<path d="M173.506 21.9534L172.643 15.0069L173.973 14.8416L178.693 19.3337L178.048 19.4138L177.426 14.4123L179.014 14.215L179.877 21.1615L178.557 21.3256L173.827 16.8347L174.472 16.7545L175.094 21.756L173.506 21.9534Z" fill="#F7FFF7"/>
<path d="M168.879 22.772L167.709 15.8706L169.306 15.5997L170.477 22.5011L168.879 22.772Z" fill="#F7FFF7"/>
<path d="M161.795 24.1734L160.639 18.6124L158.446 19.0684L158.177 17.776L164.149 16.5343L164.418 17.8266L162.225 18.2826L163.381 23.8437L161.795 24.1734Z" fill="#F7FFF7"/>
<path d="M149.039 27.3909L150.262 19.8252L151.808 19.4153L156.627 25.3799L154.984 25.8154L150.926 20.4974L151.545 20.3335L150.644 26.9656L149.039 27.3909ZM150.163 25.5413L150.263 24.2422L153.743 23.32L154.484 24.3962L150.163 25.5413Z" fill="#F7FFF7"/>
<path d="M141.024 25.6257L144.228 24.581L144.618 25.7789L141.414 26.8236L141.024 25.6257ZM142.031 28.3266L145.653 27.1455L146.056 28.3814L140.903 30.0617L138.733 23.4066L143.762 21.7666L144.165 23.0025L140.667 24.1434L142.031 28.3266Z" fill="#F7FFF7"/>
<path d="M132.199 25.8636L133.708 25.2733L136.259 31.792L134.75 32.3823L132.199 25.8636ZM131.789 33.5411L130.28 34.1314L127.729 27.6127L129.238 27.0224L131.789 33.5411ZM133.816 29.6659L130.631 30.9121L130.132 29.6363L133.317 28.3901L133.816 29.6659Z" fill="#F7FFF7"/>
<path d="M121.508 31.4863L120.62 32.7165L120.508 32.4817L122.019 32.5611L121.928 33.5121L120.491 33.3759L120.578 33.2345L121.193 34.4814L120.344 34.8849L119.756 33.6251L119.922 33.6463L119.119 34.8469L118.334 34.3123L119.226 33.0912L119.338 33.326L117.823 33.2375L117.905 32.2909L119.346 32.436L119.254 32.5684L118.649 31.3172L119.498 30.9138L120.076 32.1778L119.915 32.1656L120.714 30.956L121.508 31.4863Z" fill="#F7FFF7"/>
<path d="M107.22 45.8773L107.916 37.4296L108.95 36.8414L108.254 45.2892L107.22 45.8773ZM106.159 42.7766C105.863 42.9446 105.565 43.0262 105.263 43.0214C104.958 43.0109 104.668 42.9188 104.393 42.7454C104.12 42.5629 103.887 42.3007 103.692 41.9587C103.498 41.6168 103.394 41.285 103.379 40.9633C103.371 40.6383 103.44 40.342 103.587 40.0744C103.734 39.8068 103.955 39.589 104.251 39.421C104.547 39.2529 104.847 39.1742 105.152 39.1848C105.457 39.1954 105.744 39.2891 106.013 39.4658C106.283 39.6425 106.514 39.9018 106.709 40.2438C106.903 40.5857 107.009 40.9204 107.027 41.2479C107.041 41.5696 106.974 41.8642 106.828 42.1318C106.677 42.3936 106.454 42.6085 106.159 42.7766ZM105.754 42.0637C105.945 41.955 106.054 41.7895 106.081 41.5671C106.104 41.3389 106.024 41.0625 105.84 40.738C105.655 40.4134 105.46 40.2059 105.255 40.1153C105.047 40.0189 104.848 40.0251 104.656 40.1338C104.471 40.2393 104.363 40.4077 104.334 40.6392C104.307 40.8615 104.386 41.135 104.57 41.4596C104.752 41.7783 104.946 41.9859 105.154 42.0823C105.368 42.1753 105.568 42.1692 105.754 42.0637ZM111.919 43.2978C111.629 43.4625 111.331 43.5442 111.023 43.5427C110.718 43.5321 110.431 43.4384 110.162 43.2617C109.889 43.0792 109.656 42.8169 109.461 42.475C109.267 42.1331 109.163 41.8012 109.148 41.4796C109.134 41.1579 109.201 40.8632 109.348 40.5956C109.5 40.3247 109.722 40.1069 110.011 39.9422C110.313 39.7708 110.616 39.6905 110.921 39.7011C111.226 39.7117 111.513 39.8053 111.782 39.982C112.052 40.1588 112.283 40.4181 112.478 40.76C112.672 41.102 112.778 41.4367 112.796 41.7642C112.81 42.0859 112.743 42.3805 112.596 42.6481C112.446 42.9099 112.22 43.1265 111.919 43.2978ZM111.514 42.5849C111.705 42.4762 111.814 42.3107 111.841 42.0883C111.865 41.8601 111.784 41.5837 111.6 41.2592C111.419 40.9404 111.224 40.7329 111.016 40.6365C110.808 40.5401 110.608 40.5463 110.417 40.655C110.231 40.7605 110.124 40.9289 110.094 41.1604C110.067 41.3828 110.146 41.6562 110.331 41.9808C110.515 42.3053 110.711 42.5158 110.92 42.6122C111.13 42.6995 111.328 42.6904 111.514 42.5849Z" fill="#F7FFF7"/>
<path d="M95.9988 53.2525L95.4091 52.3838L96.2109 48.7575C96.2788 48.4778 96.311 48.2464 96.3077 48.0633C96.3043 47.8803 96.2808 47.727 96.2373 47.6035C96.1992 47.4762 96.1502 47.3685 96.0903 47.2802C95.9331 47.0486 95.7333 46.9263 95.4909 46.9136C95.2504 46.8916 94.9784 46.9835 94.675 47.1894C94.4323 47.3542 94.238 47.5546 94.0921 47.7906C93.9516 48.023 93.8771 48.2871 93.8685 48.583L92.4653 48.6169C92.4613 48.1362 92.5923 47.6645 92.8584 47.2019C93.1245 46.7392 93.5168 46.3319 94.0353 45.98C94.4655 45.6879 94.8893 45.505 95.3066 45.4312C95.7256 45.3482 96.1095 45.3737 96.4582 45.5076C96.8125 45.6378 97.1095 45.8794 97.3491 46.2324C97.4764 46.4199 97.5789 46.6243 97.6565 46.8455C97.736 47.0575 97.7733 47.3142 97.7684 47.6157C97.769 47.9134 97.7203 48.2808 97.6223 48.718L96.954 51.7218L96.3662 51.4078L99.6343 49.1893L100.376 50.2815L95.9988 53.2525Z" fill="#F7FFF7"/>
<path d="M91.2426 56.9405C90.853 57.2321 90.4281 57.471 89.9679 57.6573C89.5038 57.8381 89.0663 57.9324 88.6557 57.94L88.417 56.5698C88.7463 56.5648 89.0864 56.5017 89.4372 56.3808C89.7879 56.2598 90.1074 56.0914 90.3956 55.8757C90.7212 55.632 90.9294 55.3762 91.0204 55.1083C91.1113 54.8403 91.0729 54.5943 90.9051 54.3702C90.7453 54.1567 90.5367 54.0505 90.2794 54.0516C90.022 54.0526 89.7092 54.191 89.341 54.4667L88.7486 54.9101L88.1074 54.0535L88.3442 51.1157L88.8358 51.4722L85.8977 53.6714L85.1187 52.6306L89.0415 49.6944L89.6707 50.535L89.4419 53.4668L88.5038 53.5819L88.8801 53.3002C89.5686 52.7849 90.2048 52.5501 90.7888 52.596C91.3727 52.6419 91.8465 52.9077 92.21 53.3934C92.4457 53.7083 92.5847 54.0664 92.627 54.4678C92.6653 54.8638 92.5775 55.2751 92.3638 55.7015C92.1501 56.128 91.7763 56.541 91.2426 56.9405Z" fill="#F7FFF7"/>
<path d="M81.8271 59.8406C81.6228 60.012 81.3887 60.0909 81.1249 60.0773C80.862 60.0542 80.6383 59.9329 80.4541 59.7133C80.2699 59.4936 80.1935 59.2575 80.2252 59.0047C80.2576 58.7425 80.3759 58.5258 80.5802 58.3544C80.7896 58.1787 81.0237 58.0998 81.2824 58.1178C81.5368 58.1306 81.7561 58.2468 81.9404 58.4664C82.1246 58.6861 82.2052 58.9274 82.1822 59.1903C82.1549 59.4482 82.0365 59.665 81.8271 59.8406ZM84.1344 62.591C83.9301 62.7624 83.696 62.8413 83.4322 62.8276C83.1692 62.8046 82.9456 62.6833 82.7614 62.4636C82.5772 62.244 82.5008 62.0078 82.5324 61.7551C82.5649 61.4929 82.6832 61.2761 82.8875 61.1047C83.0969 60.9291 83.331 60.8502 83.5897 60.8681C83.8441 60.881 84.0634 60.9972 84.2477 61.2168C84.4319 61.4364 84.5125 61.6777 84.4895 61.9407C84.4621 62.1986 84.3438 62.4153 84.1344 62.591Z" fill="#F7FFF7"/>
<path d="M77.921 67.9578L76.0038 65.8355L76.9353 66.3147L71.2177 64.58L72.494 63.4271L76.8797 64.7613L76.145 65.425L75.2693 60.92L76.4492 59.8542L77.5958 65.7181L77.206 64.7496L79.1231 66.8719L77.921 67.9578Z" fill="#F7FFF7"/>
<path d="M71.4577 74.2422L67.442 70.2251L65.8578 71.8088L64.9246 70.8752L69.2388 66.5626L70.172 67.4962L68.5878 69.0798L72.6034 73.0969L71.4577 74.2422Z" fill="#F7FFF7"/>
<path d="M67.2525 78.6915L62.1241 73.9271L63.2268 72.7403L68.3551 77.5047L67.2525 78.6915Z" fill="#F7FFF7"/>
<path d="M59.6781 87.441L54.3402 82.9125L56.3975 80.4876C56.8891 79.9081 57.4344 79.492 58.0333 79.2395C58.6271 78.9827 59.2279 78.8979 59.8358 78.9852C60.4437 79.0725 61.0196 79.3469 61.5635 79.8084C62.1024 80.2655 62.467 80.789 62.6573 81.3788C62.8425 81.9643 62.8593 82.5731 62.7078 83.2051C62.5511 83.8329 62.227 84.4365 61.7353 85.0161L59.6781 87.441ZM59.7119 85.3452L60.6694 84.2167C60.9713 83.8608 61.1661 83.4972 61.2539 83.1258C61.3409 82.745 61.3202 82.3777 61.1919 82.0241C61.0679 81.6653 60.8381 81.3436 60.5026 81.059C60.162 80.77 59.8071 80.5957 59.438 80.5361C59.0682 80.4672 58.705 80.5088 58.3486 80.661C57.9914 80.8038 57.6618 81.0532 57.3599 81.409L56.4025 82.5376L59.7119 85.3452Z" fill="#F7FFF7"/>
<path d="M56.8235 91.183L51.2869 86.8997L52.2782 85.6184L57.8148 89.9017L56.8235 91.183Z" fill="#F7FFF7"/>
<path d="M49.0554 102.07L43.3112 98.0692L44.077 96.9696L49.8338 97.3474L49.428 97.93L47.0488 92.7025L47.8089 91.6111L53.5645 95.5951L52.6958 96.8425L48.8579 94.1818L49.0179 93.952L50.9056 98.1182L50.4884 98.7172L45.8975 98.4325L46.0918 98.1535L49.924 100.822L49.0554 102.07Z" fill="#F7FFF7"/>
<path d="M45.0022 109.008C44.4912 109.86 43.8545 110.384 43.092 110.579C42.3294 110.775 41.5079 110.609 40.6274 110.081L37.2657 108.065L38.0989 106.675L41.4092 108.661C41.9809 109.004 42.4629 109.133 42.855 109.05C43.2471 108.966 43.5701 108.713 43.8238 108.29C44.0776 107.867 44.1489 107.462 44.038 107.077C43.927 106.692 43.5857 106.328 43.0139 105.985L39.7036 104L40.5266 102.627L43.8883 104.644C44.7688 105.172 45.3023 105.818 45.4888 106.583C45.6753 107.348 45.5131 108.156 45.0022 109.008Z" fill="#F7FFF7"/>
<path d="M33.9973 114.222L34.7423 112.783L40.9581 116.003L40.2131 117.441L33.9973 114.222ZM38.7506 120.265L38.0056 121.703L31.7898 118.484L32.5348 117.046L38.7506 120.265ZM37.7198 116.015L36.1469 119.051L34.9304 118.421L36.5033 115.385L37.7198 116.015Z" fill="#F7FFF7"/>
<path d="M29.663 125.5L29.8065 127.01L29.5678 126.907L30.7557 125.971L31.3145 126.746L30.1439 127.591L30.1167 127.427L31.401 127.959L31.0287 128.822L29.7563 128.263L29.8944 128.17L30.0827 129.601L29.1397 129.717L29.0053 128.211L29.2441 128.314L28.047 129.246L27.4842 128.48L28.664 127.639L28.682 127.799L27.4017 127.258L27.774 126.395L29.0424 126.964L28.9135 127.061L28.716 125.625L29.663 125.5Z" fill="#F7FFF7"/>
<path d="M30.4672 139.838L29.4787 139.484L29.2285 139.5L27.4587 138.866C27.1449 138.754 26.8653 138.763 26.6198 138.895C26.3766 139.02 26.1842 139.28 26.0425 139.676C25.9458 139.946 25.8942 140.228 25.8876 140.523C25.877 140.81 25.9112 141.07 25.9904 141.304L24.7753 141.463C24.6797 141.117 24.6483 140.731 24.681 140.303C24.7138 139.876 24.8021 139.461 24.946 139.06C25.2227 138.288 25.6194 137.754 26.1364 137.457C26.6533 137.161 27.2977 137.151 28.0696 137.428L30.9597 138.463L30.4672 139.838ZM29.9893 141.409C29.8476 141.804 29.6603 142.119 29.4273 142.355C29.188 142.588 28.9253 142.738 28.6391 142.805C28.3529 142.873 28.0655 142.855 27.7768 142.751C27.4755 142.643 27.2378 142.477 27.0636 142.251C26.8917 142.02 26.8003 141.721 26.7894 141.356C26.7723 140.989 26.856 140.548 27.0404 140.033L27.5228 138.687L28.3794 138.994L27.9544 140.18C27.8307 140.526 27.8017 140.784 27.8675 140.957C27.9355 141.123 28.0542 141.236 28.2236 141.297C28.4119 141.364 28.5884 141.346 28.7531 141.242C28.9138 141.13 29.0402 140.945 29.1324 140.687C29.2201 140.443 29.2423 140.203 29.1991 139.968C29.1495 139.73 29.0276 139.527 28.8331 139.359L29.5919 139.376C29.88 139.599 30.0582 139.883 30.1264 140.226C30.1947 140.569 30.149 140.963 29.9893 141.409Z" fill="#F7FFF7"/>
<path d="M26.3579 152.694L19.653 150.683L20.5234 147.781C20.7035 147.181 20.9576 146.693 21.2858 146.318C21.6076 145.942 21.9859 145.69 22.4207 145.563C22.8556 145.435 23.3252 145.447 23.8297 145.599C24.3278 145.748 24.7234 145.996 25.0165 146.341C25.3096 146.686 25.49 147.106 25.5578 147.6C25.6191 148.091 25.5598 148.637 25.3797 149.237L24.7678 151.278L24.2754 150.378L26.8233 151.142L26.3579 152.694ZM24.4479 150.43L23.5035 150.898L24.0895 148.944C24.2332 148.466 24.2382 148.077 24.1047 147.78C23.9713 147.482 23.7225 147.279 23.3586 147.17C22.9882 147.059 22.6654 147.091 22.3902 147.266C22.115 147.441 21.9056 147.767 21.7619 148.246L21.1759 150.2L20.6452 149.29L24.4479 150.43Z" fill="#F7FFF7"/>
<path d="M19.4715 157.82C19.5711 157.405 19.7442 157.056 19.9906 156.772C20.2321 156.48 20.5472 156.282 20.9359 156.176C21.3181 156.069 21.775 156.08 22.3066 156.207L25.3013 156.927L24.9369 158.444L22.1755 157.78C21.7542 157.679 21.4204 157.698 21.1743 157.838C20.9298 157.971 20.767 158.206 20.686 158.543C20.6284 158.783 20.6281 159.013 20.6851 159.232C20.7371 159.444 20.8536 159.629 21.0346 159.789C21.2171 159.943 21.4704 160.059 21.7945 160.137L24.3809 160.758L24.0165 162.275L16.8018 160.541L17.1662 159.025L20.5986 159.849L20.0793 160.084C19.7744 159.812 19.57 159.479 19.4661 159.083C19.3622 158.688 19.364 158.267 19.4715 157.82Z" fill="#F7FFF7"/>
<path d="M22.301 172.313C22.1979 172.944 21.9766 173.472 21.6372 173.896C21.2988 174.314 20.8559 174.606 20.3085 174.774C19.761 174.941 19.1156 174.964 18.3721 174.843C17.5759 174.713 16.9257 174.455 16.4213 174.068C15.918 173.675 15.5646 173.192 15.361 172.619C15.1585 172.038 15.1136 171.403 15.2264 170.712C15.2865 170.344 15.3835 169.998 15.5172 169.675C15.6509 169.353 15.8166 169.082 16.0143 168.865L17.0921 169.649C16.9293 169.818 16.8072 170.007 16.7257 170.217C16.6376 170.426 16.5743 170.648 16.5356 170.885C16.4379 171.484 16.5415 171.987 16.8464 172.395C17.1514 172.803 17.6592 173.065 18.3698 173.181C18.4882 173.2 18.6198 173.221 18.7646 173.245C18.9104 173.262 19.0584 173.266 19.2085 173.257L18.7215 173.633C18.4853 173.466 18.2977 173.27 18.1589 173.045C18.0135 172.818 17.92 172.563 17.8785 172.28C17.8315 171.988 17.8348 171.678 17.8885 171.349C17.9616 170.902 18.1159 170.515 18.3515 170.189C18.5872 169.862 18.8834 169.62 19.2401 169.462C19.598 169.298 19.994 169.251 20.4283 169.322C20.8954 169.398 21.284 169.583 21.5941 169.877C21.8986 170.163 22.1141 170.519 22.2405 170.945C22.3613 171.363 22.3815 171.819 22.301 172.313ZM21.0923 172.206C21.1288 171.983 21.1215 171.779 21.0705 171.595C21.0139 171.403 20.9148 171.245 20.773 171.121C20.6312 170.996 20.4583 170.917 20.2543 170.884C19.9385 170.833 19.6708 170.9 19.4511 171.087C19.2259 171.267 19.0843 171.534 19.0263 171.889C18.9877 172.126 18.9999 172.341 19.063 172.534C19.1196 172.725 19.2182 172.887 19.3589 173.018C19.4941 173.141 19.6637 173.22 19.8677 173.253C20.0651 173.285 20.2508 173.265 20.4248 173.192C20.5923 173.118 20.7365 172.999 20.8576 172.837C20.9722 172.673 21.0504 172.463 21.0923 172.206Z" fill="#F7FFF7"/>
<path d="M21.0954 181.375C21.0402 181.858 20.9225 182.331 20.7422 182.794C20.556 183.249 20.3245 183.632 20.0474 183.943L18.888 183.166C19.1104 182.923 19.2975 182.636 19.4494 182.304C19.6021 181.966 19.6988 181.618 19.7397 181.26C19.7858 180.856 19.7426 180.529 19.6101 180.279C19.4776 180.029 19.2689 179.888 18.9841 179.856C18.8053 179.835 18.641 179.863 18.4913 179.94C18.3417 180.017 18.2168 180.171 18.1167 180.401C18.0174 180.624 17.9435 180.948 17.8951 181.372L17.6921 183.15L13.8184 182.346L14.3027 178.103L15.5943 178.251L15.1758 181.917L14.5358 180.998L17.2993 181.565L16.4688 182.316L16.6367 180.846C16.7153 180.157 16.8745 179.615 17.1142 179.219C17.3481 178.817 17.6382 178.538 17.9847 178.383C18.3312 178.228 18.7098 178.174 19.1205 178.22C19.5311 178.267 19.9003 178.413 20.2279 178.659C20.5489 178.904 20.7941 179.254 20.9635 179.709C21.1271 180.157 21.171 180.712 21.0954 181.375Z" fill="#F7FFF7"/>
<path d="M20.3705 190.283C20.3339 190.855 20.1614 191.358 19.853 191.793C19.538 192.227 19.1027 192.557 18.5472 192.782C17.9917 193.007 17.3314 193.095 16.5663 193.046C15.8012 192.997 15.1575 192.825 14.6352 192.531C14.1129 192.237 13.7265 191.855 13.4761 191.385C13.2189 190.914 13.1087 190.393 13.1453 189.821C13.1823 189.242 13.3581 188.739 13.6727 188.311C13.9811 187.877 14.413 187.547 14.9685 187.322C15.524 187.097 16.1843 187.009 16.9494 187.058C17.7145 187.107 18.3582 187.278 18.8805 187.572C19.4028 187.866 19.7925 188.248 20.0497 188.719C20.3006 189.183 20.4075 189.704 20.3705 190.283ZM19.0033 190.195C19.0207 189.923 18.9593 189.682 18.8191 189.472C18.6793 189.256 18.4466 189.081 18.1212 188.947C17.7962 188.805 17.3709 188.718 16.8454 188.685C16.3198 188.651 15.8868 188.683 15.5465 188.782C15.2066 188.874 14.9536 189.018 14.7873 189.214C14.6215 189.404 14.5299 189.635 14.5125 189.908C14.4954 190.174 14.5568 190.415 14.6967 190.631C14.8369 190.841 15.0695 191.016 15.3945 191.157C15.7199 191.291 16.1455 191.375 16.671 191.409C17.1966 191.443 17.6294 191.413 17.9693 191.322C18.3096 191.223 18.5626 191.079 18.7284 190.889C18.8946 190.693 18.9863 190.462 19.0033 190.195Z" fill="#F7FFF7"/>
<path d="M19.9831 197.762L13.5847 197.621L14.2999 196.936L14.2536 199.036L12.9539 199.007L13.0205 195.988L20.0188 196.142L19.9831 197.762Z" fill="#F7FFF7"/>
<path d="M16.5305 205.717C16.5373 205.983 16.4533 206.215 16.2783 206.413C16.0964 206.605 15.8622 206.704 15.5757 206.711C15.2891 206.719 15.0568 206.631 14.8787 206.449C14.6938 206.26 14.598 206.033 14.5911 205.766C14.5841 205.493 14.6682 205.261 14.8434 205.07C15.0119 204.878 15.2394 204.779 15.526 204.772C15.8126 204.765 16.0516 204.852 16.2429 205.034C16.4277 205.216 16.5235 205.443 16.5305 205.717ZM20.1193 205.625C20.1262 205.891 20.0421 206.123 19.8671 206.321C19.6853 206.513 19.4511 206.612 19.1645 206.619C18.8779 206.627 18.6456 206.539 18.4675 206.357C18.2827 206.169 18.1868 205.941 18.18 205.674C18.173 205.401 18.2571 205.169 18.4322 204.978C18.6007 204.787 18.8283 204.687 19.1148 204.68C19.4014 204.673 19.6404 204.76 19.8318 204.942C20.0165 205.124 20.1123 205.351 20.1193 205.625Z" fill="#F7FFF7"/>
<path d="M16.2821 214.268L16.0731 210.904L17.3307 210.826L17.5397 214.19L16.2821 214.268ZM19.1491 213.969L18.9129 210.167L20.2104 210.086L20.5465 215.496L13.5599 215.93L13.2319 210.65L14.5294 210.569L14.7576 214.242L19.1491 213.969Z" fill="#F7FFF7"/>
<path d="M21.6942 225.79L14.742 226.607L14.3884 223.598C14.3152 222.976 14.3548 222.427 14.5072 221.953C14.6529 221.479 14.9001 221.098 15.2487 220.809C15.5973 220.519 16.0331 220.344 16.5562 220.282C17.0726 220.222 17.534 220.292 17.9402 220.492C18.3397 220.694 18.6653 221.008 18.9168 221.435C19.1684 221.862 19.3307 222.386 19.4038 223.009L19.6524 225.124L18.8633 224.492L21.5051 224.181L21.6942 225.79ZM21.1748 221.371L18.8564 223.405L18.6545 221.687L20.9705 219.633L21.1748 221.371ZM19.042 224.471L18.3713 225.275L18.1332 223.249C18.0748 222.752 17.9253 222.394 17.6846 222.174C17.4374 221.954 17.125 221.867 16.7476 221.911C16.3636 221.956 16.08 222.114 15.8969 222.384C15.7139 222.654 15.6515 223.037 15.7098 223.533L15.9479 225.559L15.0992 224.934L19.042 224.471Z" fill="#F7FFF7"/>
<path d="M23.1519 233.655C23.3263 234.633 23.1903 235.446 22.7439 236.094C22.2975 236.743 21.5689 237.157 20.5582 237.338L16.6991 238.026L16.4147 236.431L20.2147 235.753C20.871 235.636 21.3196 235.417 21.5604 235.097C21.8011 234.776 21.8782 234.373 21.7916 233.887C21.705 233.402 21.4933 233.05 21.1566 232.833C20.8198 232.615 20.3233 232.565 19.6669 232.682L15.8669 233.359L15.586 231.784L19.4451 231.096C20.4558 230.916 21.2827 231.053 21.9258 231.507C22.5688 231.961 22.9776 232.677 23.1519 233.655Z" fill="#F7FFF7"/>
<path d="M25.22 243.258C25.3488 243.803 25.401 244.342 25.3764 244.876C25.3453 245.411 25.249 245.858 25.0875 246.218L23.7737 245.964C23.9123 245.623 24.0029 245.238 24.0456 244.81C24.0802 244.377 24.0492 243.956 23.9526 243.548C23.8789 243.236 23.7907 242.993 23.6878 242.819C23.5769 242.64 23.4556 242.518 23.3238 242.453C23.192 242.388 23.0548 242.373 22.912 242.407C22.7304 242.45 22.6045 242.555 22.5345 242.722C22.4579 242.891 22.4148 243.1 22.4052 243.348C22.389 243.599 22.3855 243.874 22.3946 244.173C22.3957 244.467 22.3846 244.768 22.3613 245.075C22.3364 245.375 22.2802 245.659 22.1927 245.927C22.1052 246.194 21.9623 246.43 21.7641 246.634C21.5642 246.832 21.2827 246.974 20.9194 247.06C20.5301 247.152 20.152 247.132 19.785 246.999C19.41 246.862 19.0785 246.605 18.7907 246.227C18.4948 245.845 18.2709 245.333 18.119 244.691C18.0178 244.263 17.97 243.829 17.9756 243.389C17.9747 242.951 18.0373 242.549 18.1632 242.183L19.4753 242.387C19.3688 242.748 19.311 243.097 19.3018 243.435C19.2861 243.774 19.3144 244.096 19.3865 244.401C19.4586 244.706 19.5533 244.948 19.6707 245.125C19.7881 245.303 19.9151 245.42 20.0519 245.477C20.1821 245.535 20.3218 245.547 20.471 245.512C20.6462 245.47 20.7721 245.365 20.8486 245.196C20.9187 245.029 20.9585 244.821 20.9682 244.572C20.9778 244.323 20.9821 244.051 20.981 243.757C20.9784 243.456 20.9863 243.156 21.0046 242.858C21.0215 242.552 21.0737 242.266 21.1612 241.999C21.2487 241.731 21.3923 241.499 21.5921 241.301C21.7904 241.096 22.068 240.952 22.4248 240.867C22.8076 240.777 23.1832 240.801 23.5517 240.94C23.9203 241.079 24.2525 241.339 24.5484 241.722C24.8427 242.097 25.0666 242.61 25.22 243.258Z" fill="#F7FFF7"/>
<path d="M28.8742 256.772L21.2772 255.762L20.8242 254.227L26.6517 249.243L27.133 250.874L21.9306 255.079L21.7494 254.465L28.4042 255.18L28.8742 256.772ZM26.9939 255.701L25.6924 255.637L24.6732 252.184L25.7283 251.414L26.9939 255.701Z" fill="#F7FFF7"/>
<path d="M27.3328 264.832L26.1988 261.659L27.3854 261.235L28.5193 264.408L27.3328 264.832ZM30.0045 263.75L28.7225 260.162L29.9467 259.725L31.7704 264.829L25.1786 267.184L23.3986 262.203L24.6228 261.765L25.8611 265.231L30.0045 263.75Z" fill="#F7FFF7"/>
<path d="M35.7282 274.402L29.2756 277.115L28.101 274.322C27.858 273.745 27.7439 273.207 27.7587 272.709C27.7673 272.213 27.8989 271.778 28.1536 271.404C28.4083 271.029 28.7783 270.739 29.2638 270.535C29.7431 270.334 30.2058 270.273 30.6517 270.353C31.0914 270.436 31.4914 270.647 31.8515 270.987C32.2116 271.328 32.5131 271.787 32.7561 272.364L33.5818 274.328L32.6482 273.939L35.1002 272.908L35.7282 274.402ZM34.0031 270.3L32.3401 272.897L31.6694 271.303L33.3246 268.686L34.0031 270.3ZM32.8141 273.87L32.3927 274.828L31.6018 272.948C31.408 272.487 31.1649 272.184 30.8727 272.039C30.5742 271.897 30.2499 271.9 29.8996 272.047C29.5432 272.197 29.3144 272.427 29.2134 272.737C29.1124 273.047 29.1588 273.433 29.3526 273.893L30.1435 275.774L29.1546 275.409L32.8141 273.87Z" fill="#F7FFF7"/>
<path d="M40.2231 283.699L33.9366 286.778L32.6039 284.057C32.3282 283.494 32.1835 282.963 32.1697 282.465C32.1499 281.97 32.2564 281.528 32.4892 281.14C32.722 280.751 33.0749 280.441 33.5478 280.209C34.0148 279.981 34.4732 279.893 34.923 279.948C35.3728 280.002 35.7901 280.188 36.1751 280.504C36.5541 280.823 36.8815 281.264 37.1571 281.827L38.094 283.74L37.1217 283.414L39.5106 282.244L40.2231 283.699ZM37.2833 283.335L36.9085 284.32L36.0112 282.488C35.7913 282.039 35.5313 281.751 35.2312 281.623C34.9311 281.495 34.6105 281.515 34.2692 281.682C33.9219 281.852 33.7068 282.095 33.6237 282.41C33.5406 282.726 33.609 283.108 33.8289 283.557L34.7262 285.389L33.718 285.081L37.2833 283.335Z" fill="#F7FFF7"/>
<path d="M38.2629 292.651L39.5597 293.439L39.3345 293.569L39.2938 292.057L40.2489 292.072L40.2273 293.515L40.0794 293.439L41.2736 292.727L41.7431 293.542L40.534 294.227L40.542 294.061L41.8025 294.766L41.332 295.591L40.0438 294.799L40.2691 294.669L40.3011 296.186L39.3509 296.179L39.3812 294.731L39.5205 294.812L38.3213 295.515L37.8517 294.701L39.0659 294.024L39.0665 294.185L37.7973 293.485L38.2629 292.651Z" fill="#F7FFF7"/>
<path d="M51.4328 302.136C51.7417 302.595 51.9545 303.067 52.0712 303.551C52.1787 304.033 52.1937 304.509 52.1162 304.979C52.0349 305.443 51.8657 305.879 51.6086 306.285C51.3478 306.685 50.9989 307.032 50.5619 307.326C50.1249 307.62 49.6718 307.813 49.2026 307.903C48.7296 307.989 48.2608 307.979 47.7963 307.873C47.3317 307.768 46.8973 307.57 46.4929 307.28C46.0831 306.993 45.7218 306.618 45.4092 306.153C45.0631 305.639 44.8381 305.119 44.7342 304.594C44.6265 304.064 44.6409 303.548 44.7775 303.047L46.1545 303.373C46.0747 303.733 46.066 304.072 46.1284 304.391C46.1852 304.715 46.3123 305.023 46.5095 305.316C46.6993 305.598 46.9166 305.826 47.1614 305.998C47.4062 306.171 47.6693 306.288 47.9506 306.347C48.2282 306.402 48.512 306.399 48.8021 306.341C49.0884 306.277 49.3698 306.152 49.6464 305.966C49.9174 305.783 50.1365 305.572 50.3038 305.33C50.4673 305.084 50.5789 304.82 50.6388 304.539C50.6893 304.255 50.6826 303.971 50.6185 303.684C50.5507 303.393 50.4237 303.108 50.2376 302.832C50.059 302.566 49.8445 302.337 49.594 302.144C49.3343 301.949 49.0221 301.802 48.6574 301.701L49.1146 300.285C49.5646 300.44 49.9946 300.685 50.4046 301.02C50.811 301.349 51.1537 301.721 51.4328 302.136ZM49.7666 301.63L47.5845 303.098L46.7583 301.87L49.1146 300.285L49.7666 301.63Z" fill="#F7FFF7"/>
<path d="M60.1018 314.09L54.5461 318.348L53.7309 317.285L55.2186 310.941L55.614 311.457L51.6139 314.523L50.6406 313.253L56.1963 308.995L57.0054 310.05L55.5238 316.402L55.1283 315.886L59.1285 312.82L60.1018 314.09Z" fill="#F7FFF7"/>
<path d="M63.143 317.669L57.7817 322.17L56.7401 320.929L62.1015 316.428L63.143 317.669Z" fill="#F7FFF7"/>
<path d="M67.9377 323.073L63.7252 326.883L65.2278 328.544L64.2488 329.429L60.1569 324.906L61.1359 324.02L62.6385 325.681L66.851 321.871L67.9377 323.073Z" fill="#F7FFF7"/>
<path d="M77.1655 332.445L70.0205 335.217L68.8846 334.09L71.5927 326.916L72.7995 328.114L70.2643 334.304L69.81 333.853L75.987 331.276L77.1655 332.445ZM75.0016 332.411L73.83 332.982L71.2744 330.446L71.8283 329.263L75.0016 332.411Z" fill="#F7FFF7"/>
<path d="M79.693 340.251L77.1712 338.016L78.007 337.073L80.5288 339.308L79.693 340.251ZM81.5137 338.017L78.6626 335.489L79.525 334.516L83.5808 338.112L78.9373 343.35L74.9788 339.841L75.8411 338.868L78.5949 341.309L81.5137 338.017Z" fill="#F7FFF7"/>
<path d="M84.3632 347.745L83.0909 346.742L87.4242 341.244L88.6965 342.247L84.3632 347.745ZM91.1939 344.216L92.4662 345.219L88.133 350.716L86.8607 349.713L91.1939 344.216ZM86.8256 344.427L89.5115 346.544L88.6635 347.62L85.9775 345.503L86.8256 344.427Z" fill="#F7FFF7"/>
<path d="M94.6207 354.126L96.131 354.269L95.9849 354.484L95.2895 353.141L96.1557 352.738L96.7654 354.047L96.599 354.043L97.3637 352.882L98.1412 353.411L97.3516 354.555L97.2864 354.402L98.7279 354.486L98.6641 355.434L97.1593 355.282L97.3055 355.067L97.9952 356.419L97.1373 356.827L96.5333 355.51L96.694 355.522L95.921 356.678L95.1435 356.149L95.9414 355.011L96.0122 355.156L94.565 355.079L94.6207 354.126Z" fill="#F7FFF7"/>
<path d="M114.262 359.171L106.622 362.844L105.592 362.249L113.231 358.576L114.262 359.171ZM112.124 361.655C112.418 361.825 112.64 362.041 112.788 362.304C112.933 362.573 113.001 362.869 112.99 363.194C112.97 363.522 112.862 363.856 112.666 364.196C112.469 364.537 112.235 364.795 111.965 364.97C111.689 365.141 111.398 365.231 111.093 365.24C110.788 365.249 110.488 365.168 110.194 364.998C109.899 364.828 109.679 364.609 109.534 364.34C109.389 364.072 109.325 363.777 109.341 363.455C109.357 363.133 109.464 362.802 109.66 362.462C109.857 362.121 110.092 361.86 110.366 361.68C110.636 361.505 110.924 361.413 111.229 361.404C111.531 361.401 111.829 361.485 112.124 361.655ZM111.714 362.365C111.523 362.255 111.325 362.245 111.12 362.334C110.911 362.429 110.713 362.638 110.526 362.962C110.34 363.285 110.259 363.558 110.285 363.78C110.307 364.009 110.413 364.178 110.604 364.288C110.788 364.394 110.988 364.402 111.203 364.31C111.408 364.221 111.604 364.015 111.791 363.691C111.974 363.374 112.055 363.101 112.033 362.873C112.005 362.641 111.898 362.472 111.714 362.365ZM109.66 356.422C109.948 356.589 110.17 356.805 110.324 357.071C110.469 357.34 110.534 357.635 110.517 357.957C110.498 358.284 110.39 358.618 110.193 358.959C109.996 359.299 109.763 359.557 109.493 359.732C109.222 359.907 108.934 359.999 108.629 360.007C108.318 360.013 108.019 359.932 107.73 359.765C107.43 359.592 107.207 359.371 107.062 359.102C106.917 358.834 106.852 358.539 106.868 358.217C106.885 357.896 106.991 357.564 107.188 357.224C107.385 356.883 107.62 356.622 107.893 356.442C108.164 356.267 108.451 356.175 108.757 356.166C109.058 356.164 109.359 356.249 109.66 356.422ZM109.25 357.132C109.059 357.022 108.861 357.012 108.656 357.101C108.447 357.196 108.249 357.405 108.063 357.729C107.879 358.046 107.799 358.319 107.821 358.548C107.843 358.776 107.949 358.945 108.14 359.055C108.325 359.162 108.524 359.169 108.739 359.078C108.944 358.988 109.14 358.782 109.327 358.459C109.514 358.135 109.596 357.86 109.574 357.631C109.542 357.405 109.434 357.239 109.25 357.132Z" fill="#F7FFF7"/>
<path d="M126.3 365.12L125.848 366.068L122.315 367.211C122.039 367.294 121.823 367.383 121.667 367.479C121.511 367.574 121.39 367.672 121.306 367.772C121.215 367.869 121.147 367.966 121.101 368.062C120.981 368.315 120.976 368.549 121.088 368.765C121.191 368.983 121.408 369.171 121.739 369.329C122.004 369.455 122.275 369.521 122.552 369.528C122.824 369.531 123.089 369.462 123.349 369.32L124.088 370.513C123.675 370.76 123.202 370.885 122.668 370.89C122.135 370.894 121.585 370.762 121.019 370.493C120.549 370.269 120.177 369.996 119.903 369.673C119.619 369.354 119.447 369.01 119.386 368.641C119.319 368.27 119.377 367.892 119.561 367.506C119.658 367.302 119.782 367.11 119.934 366.931C120.077 366.755 120.279 366.593 120.542 366.445C120.798 366.294 121.14 366.15 121.567 366.013L124.496 365.071L124.522 365.737L120.956 364.039L121.523 362.847L126.3 365.12Z" fill="#F7FFF7"/>
<path d="M131.886 367.361C132.334 367.55 132.755 367.795 133.149 368.098C133.54 368.407 133.842 368.737 134.056 369.087L132.995 369.986C132.824 369.704 132.598 369.443 132.316 369.202C132.034 368.96 131.727 368.77 131.396 368.63C131.021 368.473 130.695 368.422 130.418 368.479C130.14 368.537 129.948 368.694 129.839 368.952C129.736 369.198 129.75 369.432 129.881 369.653C130.012 369.875 130.289 370.074 130.713 370.253L131.396 370.539L130.981 371.526L128.327 372.807L128.386 372.203L131.769 373.625L131.265 374.824L126.748 372.925L127.155 371.957L129.8 370.671L130.374 371.422L129.94 371.24C129.148 370.907 128.623 370.477 128.367 369.95C128.112 369.423 128.101 368.88 128.336 368.321C128.489 367.958 128.728 367.657 129.052 367.417C129.375 367.184 129.774 367.052 130.25 367.02C130.726 366.989 131.271 367.103 131.886 367.361Z" fill="#F7FFF7"/>
<path d="M139.153 374.015C139.404 374.105 139.59 374.267 139.712 374.501C139.825 374.74 139.833 374.994 139.737 375.264C139.641 375.534 139.476 375.719 139.242 375.82C138.999 375.924 138.752 375.932 138.501 375.842C138.244 375.751 138.057 375.589 137.942 375.356C137.824 375.13 137.814 374.882 137.91 374.612C138.006 374.342 138.173 374.151 138.412 374.038C138.648 373.931 138.895 373.923 139.153 374.015ZM140.358 370.633C140.609 370.723 140.796 370.885 140.917 371.12C141.031 371.358 141.039 371.612 140.943 371.882C140.847 372.152 140.681 372.338 140.447 372.438C140.205 372.543 139.958 372.55 139.707 372.461C139.449 372.369 139.263 372.207 139.147 371.975C139.03 371.749 139.019 371.501 139.115 371.231C139.212 370.961 139.379 370.769 139.618 370.656C139.854 370.549 140.101 370.542 140.358 370.633Z" fill="#F7FFF7"/>
<path d="M148.134 373.279L147.273 376.007L147.216 374.961L148.611 380.771L146.971 380.253L145.904 375.794L146.848 376.093L143.404 379.127L141.888 378.648L146.367 374.693L145.728 375.519L146.59 372.792L148.134 373.279Z" fill="#F7FFF7"/>
<path d="M156.823 375.676L155.389 381.172L157.556 381.738L157.223 383.015L151.32 381.475L151.654 380.197L153.821 380.763L155.256 375.267L156.823 375.676Z" fill="#F7FFF7"/>
<path d="M162.783 377.05L161.267 383.884L159.686 383.533L161.202 376.699L162.783 377.05Z" fill="#F7FFF7"/>
<path d="M174.164 379.163L172.957 386.058L169.825 385.51C169.076 385.379 168.442 385.119 167.921 384.73C167.399 384.347 167.022 383.872 166.79 383.303C166.558 382.735 166.503 382.099 166.626 381.397C166.748 380.701 167.015 380.121 167.428 379.659C167.839 379.203 168.356 378.881 168.978 378.692C169.598 378.509 170.283 378.483 171.032 378.614L174.164 379.163ZM172.339 380.193L170.881 379.938C170.421 379.858 170.009 379.874 169.644 379.986C169.272 380.103 168.966 380.307 168.725 380.597C168.479 380.885 168.317 381.246 168.242 381.679C168.165 382.119 168.194 382.514 168.329 382.862C168.457 383.216 168.676 383.508 168.988 383.739C169.292 383.975 169.673 384.133 170.133 384.213L171.591 384.468L172.339 380.193Z" fill="#F7FFF7"/>
<path d="M178.836 379.728L177.941 386.671L176.334 386.464L177.229 379.521L178.836 379.728Z" fill="#F7FFF7"/>
<path d="M192.157 380.925L191.611 387.904L190.276 387.799L187.69 382.642L188.398 382.697L185.091 387.394L183.765 387.29L184.291 380.31L185.807 380.428L185.452 385.085L185.173 385.063L187.813 381.327L188.54 381.384L190.617 385.489L190.278 385.462L190.642 380.806L192.157 380.925Z" fill="#F7FFF7"/>
<path d="M200.192 380.911C201.185 380.921 201.959 381.205 202.514 381.764C203.068 382.323 203.34 383.116 203.33 384.142L203.291 388.062L201.671 388.046L201.71 384.186C201.716 383.52 201.584 383.038 201.314 382.742C201.043 382.446 200.662 382.296 200.168 382.291C199.675 382.286 199.29 382.429 199.014 382.72C198.738 383.01 198.596 383.489 198.59 384.155L198.551 388.015L196.951 387.999L196.99 384.079C197.001 383.053 197.288 382.266 197.854 381.718C198.419 381.17 199.199 380.901 200.192 380.911Z" fill="#F7FFF7"/>
<path d="M210.258 387.77L208.64 387.855L208.273 380.865L209.891 380.78L210.258 387.77ZM213.067 380.613L214.684 380.528L215.051 387.519L213.433 387.604L213.067 380.613ZM209.921 383.652L213.337 383.473L213.409 384.841L209.993 385.02L209.921 383.652Z" fill="#F7FFF7"/>
<path d="M222.176 385.804L223.406 384.916L223.438 385.174L222.03 384.623L222.415 383.749L223.737 384.331L223.609 384.437L223.418 383.06L224.351 382.945L224.512 384.326L224.362 384.253L225.502 383.367L226.079 384.122L224.847 385L224.815 384.742L226.225 385.303L225.849 386.175L224.526 385.583L224.655 385.487L224.836 386.865L223.903 386.98L223.752 385.598L223.901 385.661L222.763 386.557L222.176 385.804Z" fill="#F7FFF7"/>
<path d="M234.139 377.86L234.334 378.892L234.475 379.099L234.823 380.947C234.885 381.274 235.034 381.511 235.272 381.656C235.503 381.802 235.825 381.837 236.238 381.759C236.519 381.706 236.789 381.608 237.047 381.464C237.3 381.328 237.507 381.167 237.668 380.981L238.42 381.948C238.17 382.205 237.853 382.428 237.468 382.616C237.082 382.804 236.68 382.937 236.261 383.016C235.455 383.168 234.794 383.096 234.276 382.8C233.759 382.504 233.425 381.953 233.273 381.147L232.705 378.13L234.139 377.86ZM235.736 377.478C236.149 377.4 236.516 377.402 236.837 377.484C237.158 377.573 237.421 377.723 237.624 377.936C237.827 378.149 237.957 378.406 238.013 378.707C238.073 379.022 238.049 379.311 237.943 379.575C237.83 379.841 237.619 380.071 237.309 380.265C237.001 380.465 236.579 380.616 236.041 380.717L234.636 380.982L234.468 380.088L235.706 379.854C236.066 379.787 236.304 379.681 236.419 379.537C236.528 379.394 236.566 379.234 236.533 379.058C236.496 378.861 236.391 378.718 236.218 378.628C236.039 378.547 235.816 378.531 235.547 378.582C235.292 378.63 235.074 378.732 234.893 378.888C234.713 379.051 234.6 379.259 234.552 379.512L234.183 378.849C234.231 378.487 234.385 378.19 234.646 377.958C234.908 377.725 235.271 377.565 235.736 377.478Z" fill="#F7FFF7"/>
<path d="M247.308 374.898L248.964 381.699L246.02 382.416C245.411 382.565 244.862 382.592 244.373 382.498C243.885 382.411 243.476 382.212 243.147 381.902C242.817 381.591 242.59 381.18 242.465 380.668C242.342 380.163 242.356 379.696 242.505 379.269C242.655 378.841 242.926 378.473 243.317 378.165C243.71 377.864 244.211 377.639 244.82 377.49L246.89 376.986L246.363 377.866L245.734 375.281L247.308 374.898ZM246.32 377.691L247.202 378.269L245.22 378.751C244.734 378.87 244.397 379.062 244.208 379.327C244.019 379.593 243.969 379.91 244.059 380.28C244.15 380.655 244.341 380.918 244.631 381.067C244.921 381.215 245.309 381.231 245.795 381.112L247.777 380.63L247.26 381.548L246.32 377.691Z" fill="#F7FFF7"/>
<path d="M255.212 378.251C254.803 378.375 254.415 378.403 254.045 378.333C253.671 378.273 253.341 378.101 253.053 377.819C252.768 377.544 252.545 377.144 252.387 376.621L251.493 373.674L252.986 373.221L253.81 375.939C253.936 376.353 254.121 376.631 254.366 376.773C254.605 376.917 254.89 376.938 255.222 376.837C255.458 376.766 255.656 376.65 255.816 376.49C255.972 376.338 256.074 376.144 256.12 375.907C256.16 375.672 256.132 375.394 256.035 375.075L255.263 372.53L256.756 372.077L258.91 379.178L257.417 379.631L256.392 376.253L256.858 376.582C256.777 376.982 256.593 377.327 256.304 377.617C256.016 377.906 255.652 378.118 255.212 378.251Z" fill="#F7FFF7"/>
<path d="M266.286 368.479C266.883 368.248 267.45 368.172 267.988 368.25C268.519 368.331 268.995 368.565 269.417 368.953C269.838 369.34 270.184 369.886 270.456 370.588C270.746 371.341 270.852 372.032 270.774 372.663C270.69 373.296 270.452 373.845 270.06 374.311C269.662 374.779 269.136 375.139 268.483 375.391C268.135 375.526 267.788 375.617 267.442 375.665C267.096 375.713 266.779 375.706 266.491 375.646L266.622 374.32C266.851 374.374 267.076 374.384 267.298 374.348C267.522 374.319 267.747 374.261 267.97 374.174C268.536 373.956 268.918 373.612 269.116 373.142C269.313 372.673 269.282 372.103 269.023 371.431C268.98 371.319 268.932 371.195 268.879 371.058C268.82 370.923 268.748 370.794 268.664 370.669L269.235 370.899C269.211 371.187 269.137 371.448 269.012 371.681C268.891 371.921 268.718 372.131 268.494 372.31C268.267 372.498 267.997 372.652 267.686 372.772C267.264 372.936 266.852 372.998 266.451 372.96C266.05 372.922 265.692 372.789 265.375 372.561C265.052 372.335 264.811 372.017 264.653 371.607C264.482 371.165 264.445 370.737 264.542 370.32C264.635 369.913 264.833 369.547 265.137 369.223C265.436 368.907 265.819 368.659 266.286 368.479ZM266.806 369.575C266.594 369.657 266.422 369.766 266.289 369.903C266.152 370.049 266.066 370.214 266.031 370.4C265.995 370.585 266.014 370.774 266.089 370.967C266.204 371.265 266.398 371.462 266.67 371.557C266.939 371.66 267.241 371.647 267.577 371.518C267.801 371.431 267.98 371.312 268.114 371.16C268.251 371.014 268.34 370.848 268.382 370.66C268.42 370.481 268.402 370.295 268.328 370.102C268.256 369.916 268.144 369.766 267.993 369.652C267.845 369.545 267.67 369.481 267.468 369.459C267.269 369.443 267.048 369.481 266.806 369.575Z" fill="#F7FFF7"/>
<path d="M274.709 364.932C275.154 364.735 275.622 364.598 276.112 364.519C276.599 364.449 277.047 364.456 277.455 364.537L277.371 365.93C277.049 365.862 276.707 365.845 276.344 365.882C275.975 365.921 275.626 366.014 275.296 366.16C274.925 366.324 274.664 366.527 274.516 366.768C274.367 367.008 274.351 367.26 274.467 367.522C274.54 367.687 274.647 367.814 274.789 367.904C274.931 367.994 275.127 368.025 275.376 367.994C275.619 367.967 275.935 367.867 276.326 367.694L277.962 366.97L279.228 370.719L275.323 372.447L274.797 371.258L278.171 369.765L277.703 370.781L276.794 368.11L277.862 368.447L276.508 369.046C275.874 369.327 275.326 369.464 274.864 369.457C274.398 369.459 274.011 369.349 273.702 369.129C273.393 368.909 273.155 368.609 272.987 368.231C272.82 367.853 272.759 367.461 272.805 367.054C272.854 366.654 273.032 366.265 273.339 365.888C273.643 365.521 274.1 365.202 274.709 364.932Z" fill="#F7FFF7"/>
<path d="M282.763 361.054C283.275 360.796 283.797 360.69 284.328 360.736C284.861 360.789 285.366 360.997 285.841 361.363C286.316 361.728 286.726 362.253 287.071 362.938C287.415 363.623 287.593 364.265 287.604 364.864C287.614 365.463 287.48 365.99 287.201 366.444C286.925 366.904 286.531 367.263 286.019 367.521C285.501 367.781 284.978 367.884 284.45 367.829C283.919 367.783 283.416 367.577 282.941 367.212C282.466 366.846 282.056 366.321 281.711 365.636C281.367 364.951 281.189 364.309 281.178 363.71C281.168 363.111 281.3 362.581 281.577 362.121C281.85 361.671 282.245 361.315 282.763 361.054ZM283.379 362.278C283.135 362.4 282.958 362.575 282.848 362.802C282.733 363.032 282.699 363.321 282.748 363.67C282.791 364.022 282.93 364.433 283.167 364.903C283.404 365.374 283.651 365.731 283.908 365.975C284.159 366.221 284.412 366.367 284.665 366.411C284.913 366.458 285.159 366.42 285.403 366.297C285.641 366.177 285.818 366.002 285.933 365.772C286.043 365.545 286.077 365.256 286.034 364.904C285.985 364.556 285.843 364.146 285.606 363.676C285.369 363.205 285.125 362.847 284.874 362.6C284.617 362.356 284.364 362.211 284.117 362.164C283.863 362.12 283.617 362.158 283.379 362.278Z" fill="#F7FFF7"/>
<path d="M289.41 357.606L292.524 363.197L291.572 362.926L293.407 361.905L294.039 363.04L291.401 364.51L287.995 358.395L289.41 357.606Z" fill="#F7FFF7"/>
<path d="M298.021 356.562C298.248 356.421 298.49 356.377 298.75 356.427C299.007 356.487 299.211 356.639 299.362 356.883C299.513 357.126 299.555 357.371 299.488 357.617C299.419 357.872 299.271 358.069 299.045 358.21C298.813 358.354 298.57 358.399 298.316 358.345C298.066 358.296 297.866 358.15 297.714 357.907C297.563 357.663 297.517 357.413 297.577 357.156C297.641 356.904 297.789 356.706 298.021 356.562ZM296.127 353.513C296.353 353.372 296.596 353.327 296.855 353.378C297.112 353.438 297.316 353.59 297.468 353.833C297.619 354.077 297.661 354.321 297.594 354.567C297.525 354.822 297.377 355.02 297.15 355.161C296.918 355.305 296.675 355.35 296.422 355.295C296.172 355.247 295.971 355.101 295.82 354.857C295.668 354.614 295.623 354.363 295.683 354.106C295.746 353.855 295.894 353.657 296.127 353.513Z" fill="#F7FFF7"/>
<path d="M305.519 352.448L302.723 354.329L302.02 353.284L304.816 351.402L305.519 352.448ZM303.812 350.125L300.651 352.253L299.925 351.174L304.422 348.148L308.33 353.955L303.941 356.909L303.215 355.83L306.268 353.776L303.812 350.125Z" fill="#F7FFF7"/>
<path d="M312.724 341.953L316.945 347.537L314.528 349.364C314.028 349.742 313.535 349.985 313.048 350.093C312.566 350.207 312.112 350.187 311.686 350.033C311.26 349.878 310.889 349.591 310.571 349.171C310.257 348.756 310.084 348.323 310.052 347.871C310.024 347.424 310.13 346.984 310.371 346.551C310.612 346.119 310.983 345.713 311.482 345.335L313.182 344.051L313.035 345.051L311.431 342.929L312.724 341.953ZM309.174 344.636L312.102 345.607L310.721 346.65L307.778 345.691L309.174 344.636ZM312.927 344.908L313.96 345.08L312.332 346.31C311.933 346.612 311.7 346.922 311.632 347.241C311.568 347.565 311.65 347.879 311.879 348.182C312.112 348.49 312.392 348.655 312.717 348.677C313.043 348.698 313.405 348.558 313.804 348.257L315.431 347.026L315.321 348.075L312.927 344.908Z" fill="#F7FFF7"/>
<path d="M318.77 336.719C319.525 336.073 320.296 335.78 321.081 335.837C321.866 335.894 322.592 336.313 323.259 337.093L325.804 340.074L324.572 341.126L322.066 338.191C321.633 337.684 321.217 337.408 320.819 337.362C320.42 337.317 320.034 337.454 319.658 337.774C319.283 338.095 319.087 338.455 319.07 338.856C319.052 339.256 319.26 339.71 319.693 340.217L322.2 343.153L320.983 344.192L318.437 341.211C317.771 340.43 317.47 339.647 317.537 338.863C317.604 338.078 318.015 337.364 318.77 336.719Z" fill="#F7FFF7"/>
<path d="M326.01 330.076C326.415 329.69 326.854 329.372 327.326 329.123C327.803 328.88 328.238 328.736 328.631 328.694L329.076 329.956C328.711 330.009 328.334 330.125 327.943 330.305C327.552 330.494 327.205 330.733 326.901 331.023C326.67 331.244 326.505 331.443 326.406 331.62C326.308 331.807 326.264 331.973 326.275 332.119C326.285 332.266 326.341 332.392 326.443 332.498C326.572 332.633 326.726 332.689 326.906 332.664C327.09 332.645 327.292 332.577 327.512 332.459C327.736 332.346 327.975 332.21 328.228 332.051C328.482 331.901 328.747 331.759 329.023 331.624C329.295 331.493 329.568 331.398 329.843 331.338C330.118 331.279 330.394 331.283 330.67 331.35C330.942 331.422 331.207 331.594 331.465 331.863C331.741 332.153 331.915 332.489 331.986 332.873C332.058 333.266 332.003 333.682 331.823 334.121C331.643 334.569 331.315 335.022 330.837 335.478C330.519 335.781 330.169 336.042 329.787 336.26C329.409 336.482 329.031 336.631 328.652 336.708L328.164 335.473C328.529 335.382 328.86 335.255 329.156 335.092C329.457 334.934 329.72 334.747 329.947 334.531C330.173 334.314 330.334 334.11 330.428 333.919C330.522 333.728 330.558 333.559 330.538 333.412C330.523 333.271 330.462 333.144 330.356 333.033C330.232 332.903 330.077 332.848 329.893 332.867C329.713 332.891 329.514 332.962 329.294 333.08C329.074 333.197 328.838 333.331 328.585 333.481C328.326 333.635 328.064 333.78 327.797 333.915C327.525 334.055 327.251 334.155 326.976 334.215C326.701 334.275 326.428 334.268 326.156 334.196C325.88 334.129 325.615 333.962 325.361 333.697C325.09 333.413 324.921 333.076 324.854 332.688C324.787 332.3 324.844 331.882 325.024 331.433C325.199 330.989 325.528 330.537 326.01 330.076Z" fill="#F7FFF7"/>
<path d="M335.817 320.089L338.788 327.154L337.693 328.321L330.446 325.814L331.61 324.574L337.868 326.935L337.43 327.402L334.681 321.3L335.817 320.089ZM335.844 322.253L336.447 323.408L333.984 326.034L332.786 325.513L335.844 322.253Z" fill="#F7FFF7"/>
<path d="M343.553 317.341L341.389 319.925L340.423 319.115L342.587 316.532L343.553 317.341ZM341.268 315.584L338.821 318.504L337.825 317.67L341.305 313.515L346.671 318.01L343.274 322.065L342.278 321.23L344.641 318.409L341.268 315.584Z" fill="#F7FFF7"/>
<path d="M347.561 305.259L353.165 309.453L351.35 311.879C350.974 312.381 350.568 312.751 350.131 312.991C349.699 313.234 349.258 313.34 348.805 313.31C348.353 313.28 347.917 313.107 347.495 312.791C347.079 312.48 346.792 312.112 346.636 311.686C346.485 311.265 346.465 310.813 346.576 310.33C346.688 309.848 346.931 309.355 347.307 308.854L348.583 307.148L348.72 308.15L346.59 306.556L347.561 305.259ZM344.894 308.822L347.977 308.943L346.94 310.328L343.846 310.224L344.894 308.822ZM348.576 308.042L349.615 307.921L348.393 309.554C348.094 309.955 347.955 310.318 347.979 310.643C348.007 310.972 348.173 311.251 348.477 311.478C348.787 311.71 349.101 311.791 349.42 311.721C349.738 311.652 350.047 311.417 350.347 311.016L351.569 309.383L351.754 310.421L348.576 308.042Z" fill="#F7FFF7"/>
<path d="M353.308 296.68L359.144 300.546L357.471 303.072C357.125 303.594 356.74 303.987 356.318 304.251C355.901 304.519 355.466 304.65 355.012 304.646C354.559 304.642 354.113 304.494 353.674 304.204C353.241 303.916 352.934 303.565 352.753 303.15C352.573 302.734 352.521 302.28 352.599 301.788C352.683 301.3 352.898 300.794 353.244 300.272L354.42 298.496L354.631 299.5L352.414 298.031L353.308 296.68ZM354.481 299.4L355.521 299.225L354.394 300.926C354.118 301.343 354.001 301.713 354.042 302.036C354.084 302.36 354.263 302.626 354.58 302.836C354.902 303.05 355.221 303.113 355.535 303.025C355.849 302.937 356.144 302.685 356.42 302.268L357.547 300.567L357.791 301.593L354.481 299.4Z" fill="#F7FFF7"/>
<path d="M362.019 293.84L362.042 292.323L362.268 292.452L360.985 293.252L360.514 292.42L361.771 291.709L361.78 291.875L360.562 291.205L361.027 290.388L362.23 291.084L362.082 291.161L362.053 289.717L363.003 289.706L362.971 291.218L362.745 291.089L364.037 290.294L364.512 291.117L363.247 291.824L363.247 291.663L364.46 292.342L363.995 293.159L362.797 292.454L362.935 292.372L362.974 293.82L362.019 293.84Z" fill="#F7FFF7"/>
<path d="M363.545 277.684C363.785 277.185 364.084 276.763 364.443 276.418C364.804 276.081 365.207 275.828 365.652 275.657C366.094 275.492 366.555 275.418 367.035 275.434C367.513 275.457 367.989 275.582 368.463 275.81C368.938 276.039 369.333 276.332 369.649 276.691C369.961 277.056 370.19 277.465 370.334 277.919C370.478 278.373 370.527 278.848 370.481 279.344C370.441 279.842 370.3 280.344 370.057 280.849C369.789 281.408 369.454 281.864 369.054 282.219C368.651 282.581 368.199 282.829 367.697 282.965L367.283 281.612C367.633 281.499 367.93 281.335 368.174 281.119C368.424 280.907 368.626 280.641 368.779 280.323C368.926 280.016 369.013 279.714 369.038 279.415C369.063 279.117 369.03 278.831 368.94 278.558C368.846 278.291 368.701 278.047 368.503 277.827C368.303 277.612 368.053 277.433 367.753 277.288C367.458 277.147 367.165 277.065 366.872 277.042C366.577 277.026 366.293 277.063 366.02 277.154C365.75 277.254 365.508 277.403 365.293 277.604C365.076 277.81 364.895 278.063 364.75 278.363C364.611 278.652 364.522 278.953 364.482 279.266C364.445 279.589 364.476 279.933 364.574 280.298L363.121 280.62C363.027 280.154 363.021 279.659 363.103 279.136C363.181 278.619 363.329 278.135 363.545 277.684ZM363.952 279.378L366.322 280.517L365.681 281.851L363.121 280.62L363.952 279.378Z" fill="#F7FFF7"/>
<path d="M369.468 264.163L375.951 266.802L375.446 268.043L369.221 269.968L369.466 269.366L374.134 271.266L373.531 272.748L367.048 270.109L367.549 268.877L373.778 266.943L373.533 267.545L368.865 265.645L369.468 264.163Z" fill="#F7FFF7"/>
<path d="M371.016 259.724L377.61 262.073L377.067 263.599L370.472 261.25L371.016 259.724Z" fill="#F7FFF7"/>
<path d="M373.252 252.856L378.669 254.563L379.342 252.427L380.601 252.823L378.768 258.641L377.509 258.245L378.182 256.108L372.765 254.402L373.252 252.856Z" fill="#F7FFF7"/>
<path d="M376.672 240.158L382.677 244.919L382.279 246.469L374.721 247.761L375.144 246.115L381.766 245.171L381.607 245.791L376.259 241.765L376.672 240.158ZM377.737 242.041L378.822 242.764L377.927 246.251L376.626 246.371L377.737 242.041Z" fill="#F7FFF7"/>
<path d="M382.13 234.027L381.477 237.333L380.241 237.089L380.894 233.782L382.13 234.027ZM379.281 233.586L378.543 237.324L377.268 237.072L378.318 231.755L385.185 233.111L384.16 238.301L382.885 238.049L383.598 234.439L379.281 233.586Z" fill="#F7FFF7"/>
<path d="M386.231 226.208L386.009 227.813L379.075 226.856L379.297 225.251L386.231 226.208ZM379.732 222.101L379.953 220.496L386.887 221.454L386.666 223.058L379.732 222.101ZM382.123 225.762L382.591 222.375L383.948 222.562L383.48 225.95L382.123 225.762Z" fill="#F7FFF7"/>
<path d="M386.546 214.131L385.906 212.755L386.166 212.772L385.359 214.052L384.573 213.508L385.394 212.32L385.474 212.466L384.086 212.393L384.149 211.455L385.535 211.558L385.436 211.691L384.78 210.405L385.63 209.981L386.26 211.356L386.001 211.338L386.817 210.06L387.604 210.593L386.773 211.781L386.702 211.636L388.09 211.718L388.027 212.656L386.642 212.544L386.731 212.409L387.397 213.696L386.546 214.131Z" fill="#F7FFF7"/>
<path d="M380.965 194.636L387.997 199.368L388.005 200.558L380.973 195.826L380.965 194.636ZM384.189 195.224C384.187 194.884 384.261 194.583 384.413 194.322C384.571 194.061 384.793 193.853 385.079 193.698C385.371 193.549 385.714 193.473 386.107 193.471C386.5 193.468 386.841 193.539 387.128 193.684C387.416 193.835 387.641 194.04 387.803 194.299C387.964 194.558 388.046 194.858 388.049 195.198C388.051 195.538 387.973 195.838 387.815 196.099C387.657 196.36 387.435 196.565 387.149 196.714C386.863 196.862 386.524 196.938 386.13 196.941C385.737 196.943 385.393 196.872 385.099 196.728C384.811 196.583 384.587 196.381 384.425 196.122C384.27 195.863 384.191 195.564 384.189 195.224ZM385.009 195.218C385.01 195.438 385.101 195.614 385.282 195.746C385.47 195.878 385.75 195.943 386.124 195.941C386.497 195.938 386.773 195.87 386.952 195.735C387.138 195.601 387.23 195.423 387.229 195.203C387.227 194.99 387.133 194.814 386.945 194.675C386.764 194.543 386.487 194.478 386.114 194.481C385.747 194.483 385.471 194.552 385.285 194.686C385.099 194.828 385.007 195.005 385.009 195.218ZM380.921 199.996C380.919 199.663 380.993 199.362 381.145 199.094C381.303 198.833 381.525 198.629 381.811 198.48C382.103 198.331 382.446 198.256 382.839 198.253C383.233 198.25 383.573 198.321 383.861 198.466C384.148 198.611 384.373 198.813 384.535 199.072C384.697 199.337 384.779 199.637 384.781 199.97C384.783 200.317 384.705 200.62 384.547 200.882C384.389 201.143 384.167 201.347 383.881 201.496C383.595 201.645 383.256 201.72 382.863 201.723C382.469 201.726 382.125 201.655 381.831 201.51C381.544 201.365 381.319 201.163 381.157 200.904C381.002 200.645 380.923 200.343 380.921 199.996ZM381.741 199.99C381.742 200.21 381.834 200.386 382.014 200.519C382.202 200.651 382.482 200.715 382.856 200.713C383.222 200.71 383.499 200.642 383.684 200.507C383.87 200.373 383.962 200.195 383.961 199.975C383.959 199.762 383.865 199.586 383.677 199.447C383.496 199.315 383.219 199.25 382.846 199.253C382.473 199.255 382.193 199.324 382.007 199.459C381.828 199.6 381.739 199.777 381.741 199.99Z" fill="#F7FFF7"/>
<path d="M380.007 181.242L381.053 181.152L383.826 183.623C384.037 183.818 384.223 183.96 384.384 184.046C384.546 184.132 384.691 184.187 384.82 184.209C384.95 184.238 385.068 184.248 385.174 184.239C385.453 184.215 385.657 184.1 385.787 183.895C385.923 183.696 385.976 183.413 385.944 183.048C385.919 182.756 385.839 182.488 385.704 182.246C385.57 182.01 385.376 181.816 385.122 181.664L385.778 180.423C386.199 180.654 386.547 180.999 386.821 181.457C387.094 181.915 387.258 182.456 387.312 183.08C387.357 183.599 387.31 184.058 387.17 184.458C387.038 184.864 386.828 185.187 386.541 185.426C386.255 185.671 385.899 185.812 385.474 185.849C385.248 185.869 385.019 185.858 384.788 185.818C384.565 185.784 384.322 185.691 384.062 185.539C383.802 185.395 383.505 185.173 383.171 184.874L380.876 182.823L381.437 182.464L381.777 186.399L380.462 186.513L380.007 181.242Z" fill="#F7FFF7"/>
<path d="M379.112 175.288C379.048 174.805 379.047 174.318 379.109 173.825C379.178 173.332 379.31 172.904 379.504 172.542L380.816 173.003C380.659 173.293 380.548 173.62 380.483 173.986C380.417 174.351 380.408 174.712 380.455 175.069C380.509 175.472 380.631 175.779 380.82 175.989C381.009 176.199 381.243 176.285 381.52 176.249C381.785 176.213 381.979 176.083 382.104 175.858C382.229 175.633 382.261 175.292 382.2 174.837L382.102 174.103L383.163 173.962L385.611 175.603L385.06 175.858L384.575 172.22L385.864 172.049L386.511 176.906L385.47 177.044L383.023 175.413L383.381 174.538L383.443 175.004C383.556 175.856 383.451 176.526 383.125 177.013C382.8 177.501 382.337 177.784 381.735 177.864C381.346 177.916 380.965 177.863 380.594 177.703C380.23 177.543 379.914 177.266 379.646 176.871C379.378 176.477 379.2 175.949 379.112 175.288Z" fill="#F7FFF7"/>
<path d="M381.183 165.657C381.133 165.395 381.179 165.152 381.32 164.928C381.468 164.71 381.683 164.574 381.965 164.521C382.246 164.467 382.49 164.516 382.695 164.667C382.908 164.823 383.039 165.032 383.089 165.294C383.14 165.563 383.095 165.806 382.953 166.023C382.817 166.238 382.609 166.373 382.327 166.427C382.045 166.48 381.796 166.433 381.577 166.284C381.366 166.134 381.234 165.925 381.183 165.657ZM377.656 166.327C377.607 166.065 377.652 165.822 377.793 165.599C377.941 165.38 378.156 165.245 378.438 165.191C378.72 165.138 378.963 165.186 379.168 165.337C379.381 165.494 379.512 165.703 379.562 165.965C379.613 166.233 379.568 166.476 379.426 166.693C379.29 166.909 379.082 167.043 378.8 167.097C378.519 167.15 378.269 167.103 378.05 166.954C377.839 166.805 377.707 166.595 377.656 166.327Z" fill="#F7FFF7"/>
<path d="M376.005 158.284L378.793 157.647L377.92 158.226L382.226 154.084L382.609 155.761L379.302 158.936L379.082 157.971L383.441 159.407L383.795 160.957L378.118 159.094L379.153 159.227L376.365 159.863L376.005 158.284Z" fill="#F7FFF7"/>
<path d="M373.677 149.574L379.143 148.032L378.535 145.876L379.805 145.518L381.462 151.388L380.191 151.747L379.583 149.591L374.117 151.134L373.677 149.574Z" fill="#F7FFF7"/>
<path d="M371.849 143.735L378.511 141.587L379.008 143.129L372.346 145.277L371.849 143.735Z" fill="#F7FFF7"/>
<path d="M367.911 132.849L374.47 130.402L375.581 133.382C375.847 134.094 375.943 134.773 375.871 135.419C375.805 136.063 375.586 136.628 375.213 137.116C374.84 137.604 374.319 137.972 373.651 138.222C372.989 138.469 372.354 138.531 371.746 138.409C371.145 138.285 370.605 138.002 370.128 137.561C369.657 137.118 369.288 136.541 369.022 135.829L367.911 132.849ZM369.723 133.902L370.241 135.289C370.404 135.726 370.626 136.074 370.907 136.332C371.197 136.593 371.528 136.755 371.899 136.815C372.272 136.882 372.665 136.839 373.078 136.685C373.496 136.529 373.822 136.305 374.054 136.012C374.295 135.722 374.436 135.385 374.477 135C374.527 134.618 374.47 134.209 374.307 133.772L373.79 132.385L369.723 133.902Z" fill="#F7FFF7"/>
<path d="M366.037 128.535L372.478 125.796L373.112 127.287L366.671 130.026L366.037 128.535Z" fill="#F7FFF7"/>
<path d="M360.333 116.438L366.629 113.379L367.215 114.584L364.074 119.423L363.763 118.785L369.487 119.261L370.068 120.457L363.781 123.534L363.117 122.167L367.313 120.117L367.435 120.369L362.878 119.982L362.559 119.325L365.049 115.458L365.198 115.764L360.997 117.805L360.333 116.438Z" fill="#F7FFF7"/>
<path d="M356.259 109.513C355.765 108.651 355.619 107.84 355.82 107.079C356.022 106.318 356.568 105.682 357.459 105.172L360.86 103.223L361.665 104.628L358.316 106.548C357.738 106.879 357.389 107.236 357.271 107.619C357.152 108.002 357.216 108.408 357.461 108.836C357.706 109.264 358.024 109.524 358.414 109.615C358.805 109.706 359.289 109.586 359.868 109.255L363.217 107.336L364.012 108.724L360.611 110.673C359.72 111.183 358.896 111.333 358.137 111.122C357.379 110.912 356.752 110.375 356.259 109.513Z" fill="#F7FFF7"/>
<path d="M357.083 97.3611L357.975 98.7138L352.13 102.566L351.239 101.213L357.083 97.3611ZM349.489 98.558L348.597 97.2053L354.442 93.3532L355.334 94.7059L349.489 98.558ZM353.701 99.734L351.819 96.8784L352.963 96.1245L354.845 98.9801L353.701 99.734Z" fill="#F7FFF7"/>
<path d="M349.36 88.0726L347.972 87.4602L348.178 87.3022L348.415 88.7959L347.466 88.9053L347.3 87.4708L347.456 87.5273L346.365 88.3881L345.793 87.6417L346.903 86.8047L346.917 86.9706L345.576 86.4358L345.935 85.5562L347.315 86.1746L347.109 86.3327L346.88 84.8328L347.823 84.7156L347.981 86.1561L347.832 86.0935L348.93 85.2407L349.501 85.9871L348.385 86.8161L348.364 86.6563L349.713 87.1851L349.36 88.0726Z" fill="#F7FFF7"/>
<path d="M336.455 81.7699L337.246 81.0803L337.354 80.8538L338.772 79.6191C339.023 79.4002 339.152 79.1515 339.157 78.8731C339.166 78.5997 339.033 78.3046 338.757 77.9879C338.569 77.7717 338.347 77.5887 338.093 77.4388C337.848 77.2896 337.604 77.1925 337.362 77.1474L337.816 76.0092C338.165 76.0947 338.517 76.2561 338.874 76.4933C339.231 76.7306 339.55 77.0101 339.83 77.3318C340.368 77.9502 340.641 78.5573 340.647 79.1531C340.653 79.7489 340.347 80.3161 339.729 80.8546L337.414 82.8709L336.455 81.7699ZM335.317 80.5857C335.041 80.269 334.858 79.9515 334.766 79.6334C334.68 79.3108 334.677 79.0082 334.758 78.7256C334.839 78.4429 334.995 78.2009 335.226 77.9995C335.468 77.7893 335.729 77.6632 336.011 77.6212C336.297 77.5843 336.602 77.6502 336.926 77.819C337.255 77.9835 337.599 78.2718 337.958 78.684L338.897 79.7624L338.21 80.3601L337.383 79.4099C337.142 79.1334 336.931 78.9818 336.748 78.955C336.57 78.9333 336.413 78.9815 336.277 79.0997C336.127 79.2311 336.056 79.394 336.066 79.5884C336.086 79.7835 336.186 79.9841 336.365 80.1902C336.536 80.3863 336.734 80.5228 336.961 80.5999C337.192 80.6725 337.429 80.6652 337.671 80.578L337.286 81.2318C336.95 81.3741 336.615 81.3912 336.283 81.2831C335.95 81.1751 335.628 80.9427 335.317 80.5857Z" fill="#F7FFF7"/>
<path d="M327.238 71.91L332.268 67.041L334.375 69.2179C334.811 69.6682 335.113 70.128 335.279 70.5975C335.451 71.0623 335.486 71.5154 335.385 71.957C335.283 72.3985 335.043 72.8025 334.665 73.1688C334.291 73.5305 333.882 73.7549 333.438 73.842C332.993 73.9291 332.539 73.8817 332.075 73.6997C331.616 73.5131 331.169 73.1947 330.733 72.7445L329.251 71.2142L330.276 71.2237L328.365 73.0739L327.238 71.91ZM330.147 71.3489L330.199 70.296L331.618 71.7617C331.966 72.1209 332.303 72.3149 332.627 72.3438C332.952 72.3726 333.251 72.2548 333.524 71.9905C333.802 71.7216 333.932 71.4243 333.913 71.0987C333.895 70.7731 333.712 70.4307 333.364 70.0714L331.945 68.6058L332.999 68.5875L330.147 71.3489Z" fill="#F7FFF7"/>
<path d="M326.132 63.3922C326.446 63.6818 326.666 64.0034 326.793 64.3569C326.93 64.7101 326.949 65.082 326.851 65.4727C326.758 65.8585 326.526 66.2522 326.155 66.6536L324.064 68.9157L322.919 67.8569L324.846 65.7711C325.14 65.4529 325.286 65.1523 325.285 64.8693C325.288 64.5908 325.162 64.3339 324.908 64.0986C324.726 63.9312 324.526 63.8188 324.307 63.7614C324.097 63.7037 323.878 63.7146 323.65 63.7944C323.427 63.8787 323.202 64.0432 322.976 64.288L321.171 66.2416L320.025 65.1828L325.061 59.7334L326.207 60.7922L323.811 63.3847L323.859 62.8167C324.246 62.6835 324.636 62.6681 325.032 62.7704C325.428 62.8728 325.794 63.08 326.132 63.3922Z" fill="#F7FFF7"/>
<path d="M312.101 58.7853C311.6 58.3869 311.247 57.936 311.043 57.4327C310.844 56.9334 310.805 56.4041 310.926 55.8447C311.048 55.2852 311.343 54.7108 311.812 54.1212C312.314 53.4899 312.857 53.0485 313.44 52.7971C314.029 52.5497 314.623 52.4773 315.223 52.5798C315.828 52.6864 316.405 52.9576 316.953 53.3934C317.245 53.6258 317.499 53.8791 317.715 54.1534C317.931 54.4277 318.086 54.7042 318.18 54.983L316.969 55.5407C316.901 55.316 316.795 55.1169 316.652 54.9435C316.513 54.7648 316.35 54.6007 316.162 54.4513C315.687 54.0736 315.198 53.9183 314.693 53.9852C314.188 54.0522 313.711 54.3674 313.263 54.9309C313.189 55.0248 313.106 55.1291 313.014 55.2439C312.928 55.3629 312.852 55.4901 312.787 55.6256L312.697 55.0168C312.958 54.8922 313.22 54.8243 313.485 54.8132C313.753 54.7968 314.021 54.8398 314.289 54.9421C314.567 55.0434 314.836 55.1978 315.096 55.4053C315.451 55.6875 315.713 56.0111 315.883 56.3761C316.053 56.7411 316.119 57.1178 316.083 57.5063C316.052 57.8989 315.899 58.2674 315.625 58.6117C315.331 58.9821 314.979 59.2309 314.572 59.358C314.173 59.484 313.757 59.4982 313.324 59.4004C312.9 59.3017 312.492 59.0966 312.101 58.7853ZM312.784 57.7824C312.961 57.9235 313.143 58.0167 313.328 58.062C313.523 58.1062 313.709 58.0969 313.887 58.0339C314.065 57.971 314.218 57.8586 314.347 57.6969C314.546 57.4465 314.618 57.1797 314.562 56.8967C314.515 56.6126 314.351 56.3585 314.069 56.1343C313.881 55.9849 313.688 55.8907 313.489 55.8517C313.294 55.8075 313.105 55.8148 312.922 55.8736C312.749 55.9313 312.597 56.041 312.469 56.2028C312.344 56.3593 312.271 56.5313 312.25 56.7187C312.233 56.901 312.265 57.0847 312.348 57.2698C312.435 57.4497 312.58 57.6205 312.784 57.7824Z" fill="#F7FFF7"/>
<path d="M304.778 53.3105C304.383 53.0262 304.027 52.6925 303.712 52.3093C303.406 51.9245 303.185 51.5355 303.049 51.1421L304.293 50.5095C304.396 50.8222 304.555 51.1258 304.771 51.4203C304.991 51.7187 305.248 51.973 305.54 52.1833C305.87 52.4209 306.176 52.5429 306.459 52.5494C306.742 52.5558 306.967 52.4427 307.135 52.21C307.24 52.0639 307.295 51.9068 307.301 51.7387C307.307 51.5705 307.234 51.3866 307.082 51.1869C306.936 50.991 306.69 50.7685 306.343 50.5193L304.89 49.4736L307.484 46.4861L310.95 48.9805L310.19 50.0356L307.196 47.88L308.31 47.7701L306.465 49.9047L306.216 48.8134L307.417 49.678C307.98 50.083 308.375 50.4867 308.603 50.889C308.84 51.2897 308.942 51.6791 308.908 52.0572C308.874 52.4353 308.736 52.792 308.495 53.1275C308.253 53.463 307.946 53.7137 307.571 53.8798C307.201 54.0404 306.776 54.0834 306.296 54.0089C305.825 53.9328 305.319 53.7 304.778 53.3105Z" fill="#F7FFF7"/>
<path d="M297.362 48.3257C296.881 48.0144 296.526 47.6181 296.297 47.1367C296.072 46.6498 295.997 46.1091 296.072 45.5144C296.147 44.9198 296.393 44.3006 296.809 43.6569C297.226 43.0131 297.69 42.5351 298.201 42.2229C298.713 41.9107 299.235 41.7601 299.768 41.7712C300.304 41.7766 300.813 41.9351 301.294 42.2464C301.781 42.5614 302.134 42.9606 302.354 43.4438C302.582 43.9251 302.659 44.4631 302.584 45.0577C302.509 45.6524 302.264 46.2716 301.847 46.9153C301.431 47.5591 300.967 48.0371 300.455 48.3493C299.944 48.6615 299.42 48.8149 298.884 48.8094C298.356 48.802 297.849 48.6407 297.362 48.3257ZM298.106 47.1754C298.336 47.3238 298.576 47.388 298.827 47.3678C299.084 47.3513 299.351 47.2339 299.627 47.0155C299.909 46.8008 300.193 46.4723 300.479 46.0301C300.765 45.5879 300.948 45.1942 301.028 44.8492C301.114 44.5077 301.112 44.2165 301.021 43.9755C300.937 43.7381 300.78 43.5452 300.55 43.3968C300.326 43.252 300.086 43.1878 299.829 43.2043C299.578 43.2245 299.311 43.3419 299.03 43.5566C298.753 43.775 298.472 44.1053 298.186 44.5475C297.9 44.9897 297.714 45.3816 297.628 45.723C297.548 46.0681 297.55 46.3593 297.635 46.5967C297.725 46.8377 297.882 47.0306 298.106 47.1754Z" fill="#F7FFF7"/>
<path d="M291.026 44.3343L294.274 38.8196L294.522 39.778L292.712 38.7123L293.372 37.5922L295.974 39.1248L292.422 45.1564L291.026 44.3343Z" fill="#F7FFF7"/>
<path d="M285.769 37.4357C285.533 37.3115 285.371 37.1247 285.284 36.8753C285.206 36.6232 285.233 36.3703 285.367 36.1167C285.5 35.863 285.69 35.703 285.936 35.6365C286.191 35.5673 286.436 35.5948 286.672 35.7191C286.914 35.8464 287.076 36.0332 287.157 36.2794C287.242 36.5197 287.217 36.7667 287.083 37.0204C286.95 37.2741 286.757 37.44 286.505 37.5182C286.256 37.5905 286.01 37.563 285.769 37.4357ZM284.096 40.6124C283.86 40.4881 283.699 40.3013 283.611 40.052C283.533 39.7999 283.561 39.547 283.694 39.2933C283.828 39.0396 284.018 38.8796 284.264 38.8132C284.519 38.744 284.764 38.7715 285 38.8957C285.242 39.0231 285.403 39.2098 285.485 39.4561C285.569 39.6964 285.545 39.9434 285.411 40.1971C285.277 40.4507 285.085 40.6167 284.833 40.6949C284.583 40.7672 284.338 40.7397 284.096 40.6124Z" fill="#F7FFF7"/>
<path d="M278.43 33.0467L281.468 34.5069L280.922 35.6425L277.884 34.1822L278.43 33.0467ZM277.291 35.6943L280.724 37.3451L280.161 38.5168L275.276 36.1683L278.309 29.8595L283.077 32.1517L282.514 33.3233L279.197 31.7288L277.291 35.6943Z" fill="#F7FFF7"/>
<path d="M265.728 32.1406L268.41 25.6748L271.209 26.8358C271.788 27.0759 272.247 27.3783 272.586 27.7429C272.929 28.1013 273.141 28.5033 273.223 28.9488C273.305 29.3943 273.245 29.8603 273.044 30.3468C272.844 30.8271 272.558 31.1955 272.185 31.452C271.814 31.7023 271.381 31.833 270.885 31.844C270.39 31.8551 269.853 31.7405 269.274 31.5004L267.306 30.6843L268.244 30.3043L267.224 32.7613L265.728 32.1406ZM269.838 33.8457L269.195 30.829L270.793 31.4919L271.455 34.5162L269.838 33.8457ZM268.175 30.4706L267.801 29.4927L269.685 30.2744C270.147 30.4659 270.533 30.5105 270.842 30.4079C271.154 30.2992 271.383 30.0694 271.529 29.7184C271.677 29.3612 271.678 29.0369 271.532 28.7453C271.386 28.4537 271.082 28.2122 270.62 28.0206L268.736 27.2389L269.696 26.8036L268.175 30.4706Z" fill="#F7FFF7"/>
<path d="M258.154 29.5707C257.215 29.2453 256.572 28.7295 256.224 28.0233C255.876 27.3171 255.871 26.4789 256.207 25.5089L257.491 21.8052L259.022 22.3358L257.757 25.9829C257.539 26.6127 257.511 27.111 257.673 27.4777C257.835 27.8444 258.149 28.1085 258.615 28.2701C259.081 28.4317 259.492 28.4187 259.846 28.2311C260.2 28.0435 260.487 27.6347 260.705 27.0048L261.969 23.3578L263.481 23.8819L262.197 27.5856C261.861 28.5557 261.337 29.2103 260.627 29.5497C259.917 29.8891 259.092 29.8961 258.154 29.5707Z" fill="#F7FFF7"/>
<path d="M248.764 26.6864C248.225 26.5328 247.729 26.315 247.276 26.033C246.824 25.7447 246.481 25.4422 246.245 25.1254L247.109 24.1032C247.339 24.3906 247.63 24.6575 247.983 24.9037C248.344 25.1454 248.726 25.3238 249.13 25.4391C249.438 25.5269 249.693 25.5685 249.895 25.5639C250.106 25.5547 250.272 25.5084 250.392 25.425C250.513 25.3416 250.594 25.2294 250.634 25.0884C250.685 24.9089 250.655 24.7477 250.543 24.6049C250.433 24.4557 250.272 24.3161 250.06 24.1861C249.849 24.0497 249.611 23.9124 249.345 23.7742C249.088 23.6314 248.831 23.4749 248.575 23.3047C248.325 23.1363 248.104 22.9486 247.914 22.7417C247.723 22.5348 247.587 22.2949 247.506 22.022C247.43 21.751 247.444 21.436 247.546 21.077C247.656 20.6923 247.859 20.3722 248.153 20.1167C248.456 19.8565 248.843 19.6929 249.312 19.6259C249.79 19.5544 250.347 19.6092 250.981 19.7903C251.405 19.9111 251.807 20.0813 252.188 20.3009C252.57 20.5142 252.891 20.765 253.148 21.0534L252.33 22.0989C252.067 21.8298 251.79 21.6087 251.5 21.4357C251.211 21.2563 250.916 21.1236 250.615 21.0376C250.314 20.9516 250.057 20.9165 249.844 20.9321C249.632 20.9477 249.468 21.0013 249.351 21.0929C249.237 21.1781 249.159 21.2945 249.117 21.4419C249.067 21.615 249.097 21.7762 249.207 21.9254C249.319 22.0682 249.481 22.2046 249.694 22.3346C249.906 22.4646 250.141 22.6009 250.399 22.7437C250.662 22.8883 250.92 23.0416 251.172 23.2037C251.43 23.3675 251.655 23.5529 251.845 23.7598C252.036 23.9667 252.169 24.2056 252.244 24.4767C252.325 24.7495 252.316 25.0623 252.215 25.4149C252.107 25.7931 251.903 26.1091 251.601 26.3628C251.3 26.6166 250.911 26.7792 250.433 26.8508C249.961 26.9242 249.405 26.8694 248.764 26.6864Z" fill="#F7FFF7"/>
<path d="M235.191 23.2756L239.783 17.1397L241.343 17.4938L242.847 25.0129L241.189 24.6367L240.06 18.0434L240.684 18.185L236.81 23.643L235.191 23.2756ZM237.045 22.158L237.736 21.0537L241.247 21.8504L241.404 23.1473L237.045 22.158Z" fill="#F7FFF7"/>
<path d="M228.908 17.9952L232.231 18.5555L232.022 19.7979L228.699 19.2377L228.908 17.9952ZM228.548 20.8551L232.305 21.4885L232.088 22.7704L226.744 21.8693L227.908 14.9667L233.124 15.8462L232.908 17.1281L229.279 16.5163L228.548 20.8551Z" fill="#F7FFF7"/>
<path d="M216.456 20.6475L217.239 13.6915L220.25 14.0304C220.873 14.1005 221.398 14.2636 221.825 14.5197C222.253 14.7691 222.569 15.0964 222.771 15.5016C222.974 15.9069 223.046 16.3711 222.987 16.8945C222.929 17.4112 222.756 17.8446 222.468 18.1946C222.181 18.538 221.802 18.7838 221.329 18.9318C220.856 19.0798 220.308 19.1188 219.685 19.0487L217.569 18.8105L218.364 18.1854L218.066 20.8288L216.456 20.6475ZM220.878 21.1453L219.423 18.4255L221.143 18.619L222.617 21.3411L220.878 21.1453ZM218.343 18.3643L217.713 17.5285L219.74 17.7567C220.237 17.8127 220.62 17.7484 220.889 17.564C221.159 17.373 221.315 17.0887 221.357 16.7111C221.401 16.3268 221.312 16.0149 221.09 15.7753C220.869 15.5357 220.51 15.388 220.013 15.332L217.986 15.1039L218.788 14.4192L218.343 18.3643Z" fill="#F7FFF7"/>
<path d="M206.145 20.0289L206.528 13.0394L209.553 13.2053C210.179 13.2397 210.713 13.3724 211.154 13.6036C211.596 13.8281 211.929 14.1368 212.155 14.5298C212.38 14.9227 212.478 15.3821 212.45 15.908C212.421 16.4272 212.273 16.8698 212.006 17.2357C211.739 17.6016 211.374 17.8753 210.91 18.0569C210.446 18.2318 209.901 18.302 209.276 18.2677L207.149 18.1511L207.908 17.4616L207.762 20.1176L206.145 20.0289ZM207.898 17.6414L207.221 16.8331L209.258 16.9448C209.757 16.9722 210.136 16.8861 210.394 16.6866C210.652 16.4871 210.791 16.1976 210.812 15.8182C210.833 15.4321 210.727 15.1258 210.492 14.8993C210.257 14.6728 209.89 14.5458 209.391 14.5184L207.354 14.4067L208.115 13.6773L207.898 17.6414Z" fill="#F7FFF7"/>
</svg>
