<svg width="430" height="932" viewBox="0 0 430 932" fill="none" xmlns="http://www.w3.org/2000/svg">
<g clip-path="url(#clip0_546_168)">
<rect width="430" height="932" fill="#1C1B1F"/>
<path d="M161.83 734V727H164.86C165.487 727 166.027 727.103 166.48 727.31C166.933 727.51 167.283 727.8 167.53 728.18C167.777 728.56 167.9 729.013 167.9 729.54C167.9 730.06 167.777 730.51 167.53 730.89C167.283 731.27 166.933 731.563 166.48 731.77C166.027 731.97 165.487 732.07 164.86 732.07H162.73L163.45 731.34V734H161.83ZM163.45 731.52L162.73 730.75H164.77C165.27 730.75 165.643 730.643 165.89 730.43C166.137 730.217 166.26 729.92 166.26 729.54C166.26 729.153 166.137 728.853 165.89 728.64C165.643 728.427 165.27 728.32 164.77 728.32H162.73L163.45 727.55V731.52ZM168.937 734V728.62H170.427V730.14L170.217 729.7C170.377 729.32 170.633 729.033 170.987 728.84C171.34 728.64 171.77 728.54 172.277 728.54V729.98C172.21 729.973 172.15 729.97 172.097 729.97C172.043 729.963 171.987 729.96 171.927 729.96C171.5 729.96 171.153 730.083 170.887 730.33C170.627 730.57 170.497 730.947 170.497 731.46V734H168.937ZM172.873 734V733.06L176.053 729.3L176.323 729.82H172.943V728.62H177.583V729.56L174.403 733.32L174.123 732.8H177.673V734H172.873ZM181.275 734.08C180.661 734.08 180.121 733.96 179.655 733.72C179.195 733.48 178.838 733.153 178.585 732.74C178.331 732.32 178.205 731.843 178.205 731.31C178.205 730.77 178.328 730.293 178.575 729.88C178.828 729.46 179.171 729.133 179.605 728.9C180.038 728.66 180.528 728.54 181.075 728.54C181.601 728.54 182.075 728.653 182.495 728.88C182.921 729.1 183.258 729.42 183.505 729.84C183.751 730.253 183.875 730.75 183.875 731.33C183.875 731.39 183.871 731.46 183.865 731.54C183.858 731.613 183.851 731.683 183.845 731.75H179.475V730.84H183.025L182.425 731.11C182.425 730.83 182.368 730.587 182.255 730.38C182.141 730.173 181.985 730.013 181.785 729.9C181.585 729.78 181.351 729.72 181.085 729.72C180.818 729.72 180.581 729.78 180.375 729.9C180.175 730.013 180.018 730.177 179.905 730.39C179.791 730.597 179.735 730.843 179.735 731.13V731.37C179.735 731.663 179.798 731.923 179.925 732.15C180.058 732.37 180.241 732.54 180.475 732.66C180.715 732.773 180.995 732.83 181.315 732.83C181.601 732.83 181.851 732.787 182.065 732.7C182.285 732.613 182.485 732.483 182.665 732.31L183.495 733.21C183.248 733.49 182.938 733.707 182.565 733.86C182.191 734.007 181.761 734.08 181.275 734.08ZM186.723 734.08C186.263 734.08 185.82 734.027 185.393 733.92C184.973 733.807 184.64 733.667 184.393 733.5L184.913 732.38C185.16 732.533 185.45 732.66 185.783 732.76C186.123 732.853 186.457 732.9 186.783 732.9C187.143 732.9 187.397 732.857 187.543 732.77C187.697 732.683 187.773 732.563 187.773 732.41C187.773 732.283 187.713 732.19 187.593 732.13C187.48 732.063 187.327 732.013 187.133 731.98C186.94 731.947 186.727 731.913 186.493 731.88C186.267 731.847 186.037 731.803 185.803 731.75C185.57 731.69 185.357 731.603 185.163 731.49C184.97 731.377 184.813 731.223 184.693 731.03C184.58 730.837 184.523 730.587 184.523 730.28C184.523 729.94 184.62 729.64 184.813 729.38C185.013 729.12 185.3 728.917 185.673 728.77C186.047 728.617 186.493 728.54 187.013 728.54C187.38 728.54 187.753 728.58 188.133 728.66C188.513 728.74 188.83 728.857 189.083 729.01L188.563 730.12C188.303 729.967 188.04 729.863 187.773 729.81C187.513 729.75 187.26 729.72 187.013 729.72C186.667 729.72 186.413 729.767 186.253 729.86C186.093 729.953 186.013 730.073 186.013 730.22C186.013 730.353 186.07 730.453 186.183 730.52C186.303 730.587 186.46 730.64 186.653 730.68C186.847 730.72 187.057 730.757 187.283 730.79C187.517 730.817 187.75 730.86 187.983 730.92C188.217 730.98 188.427 731.067 188.613 731.18C188.807 731.287 188.963 731.437 189.083 731.63C189.203 731.817 189.263 732.063 189.263 732.37C189.263 732.703 189.163 733 188.963 733.26C188.763 733.513 188.473 733.713 188.093 733.86C187.72 734.007 187.263 734.08 186.723 734.08ZM192.496 734.08C192.049 734.08 191.649 733.993 191.296 733.82C190.949 733.647 190.679 733.383 190.486 733.03C190.293 732.67 190.196 732.213 190.196 731.66V728.62H191.756V731.43C191.756 731.877 191.849 732.207 192.036 732.42C192.229 732.627 192.499 732.73 192.846 732.73C193.086 732.73 193.299 732.68 193.486 732.58C193.673 732.473 193.819 732.313 193.926 732.1C194.033 731.88 194.086 731.607 194.086 731.28V728.62H195.646V734H194.166V732.52L194.436 732.95C194.256 733.323 193.989 733.607 193.636 733.8C193.289 733.987 192.909 734.08 192.496 734.08ZM200.361 728.54C200.788 728.54 201.168 728.627 201.501 728.8C201.841 728.967 202.108 729.227 202.301 729.58C202.494 729.927 202.591 730.373 202.591 730.92V734H201.031V731.16C201.031 730.727 200.934 730.407 200.741 730.2C200.554 729.993 200.288 729.89 199.941 729.89C199.694 729.89 199.471 729.943 199.271 730.05C199.078 730.15 198.924 730.307 198.811 730.52C198.704 730.733 198.651 731.007 198.651 731.34V734H197.091V728.62H198.581V730.11L198.301 729.66C198.494 729.3 198.771 729.023 199.131 728.83C199.491 728.637 199.901 728.54 200.361 728.54ZM198.941 727.93L200.291 726.49H201.971L200.161 727.93H198.941ZM210.137 734V732.95L210.037 732.72V730.84C210.037 730.507 209.934 730.247 209.727 730.06C209.527 729.873 209.217 729.78 208.797 729.78C208.511 729.78 208.227 729.827 207.947 729.92C207.674 730.007 207.441 730.127 207.247 730.28L206.687 729.19C206.981 728.983 207.334 728.823 207.747 728.71C208.161 728.597 208.581 728.54 209.007 728.54C209.827 728.54 210.464 728.733 210.917 729.12C211.371 729.507 211.597 730.11 211.597 730.93V734H210.137ZM208.497 734.08C208.077 734.08 207.717 734.01 207.417 733.87C207.117 733.723 206.887 733.527 206.727 733.28C206.567 733.033 206.487 732.757 206.487 732.45C206.487 732.13 206.564 731.85 206.717 731.61C206.877 731.37 207.127 731.183 207.467 731.05C207.807 730.91 208.251 730.84 208.797 730.84H210.227V731.75H208.967C208.601 731.75 208.347 731.81 208.207 731.93C208.074 732.05 208.007 732.2 208.007 732.38C208.007 732.58 208.084 732.74 208.237 732.86C208.397 732.973 208.614 733.03 208.887 733.03C209.147 733.03 209.381 732.97 209.587 732.85C209.794 732.723 209.944 732.54 210.037 732.3L210.277 733.02C210.164 733.367 209.957 733.63 209.657 733.81C209.357 733.99 208.971 734.08 208.497 734.08ZM216.189 734.08C215.716 734.08 215.309 733.98 214.969 733.78C214.629 733.58 214.369 733.277 214.189 732.87C214.009 732.457 213.919 731.937 213.919 731.31C213.919 730.677 214.012 730.157 214.199 729.75C214.392 729.343 214.659 729.04 214.999 728.84C215.339 728.64 215.736 728.54 216.189 728.54C216.696 728.54 217.149 728.653 217.549 728.88C217.956 729.107 218.276 729.427 218.509 729.84C218.749 730.253 218.869 730.743 218.869 731.31C218.869 731.87 218.749 732.357 218.509 732.77C218.276 733.183 217.956 733.507 217.549 733.74C217.149 733.967 216.696 734.08 216.189 734.08ZM213.009 734V726.58H214.569V729.71L214.469 731.3L214.499 732.9V734H213.009ZM215.919 732.8C216.179 732.8 216.409 732.74 216.609 732.62C216.816 732.5 216.979 732.33 217.099 732.11C217.226 731.883 217.289 731.617 217.289 731.31C217.289 730.997 217.226 730.73 217.099 730.51C216.979 730.29 216.816 730.12 216.609 730C216.409 729.88 216.179 729.82 215.919 729.82C215.659 729.82 215.426 729.88 215.219 730C215.012 730.12 214.849 730.29 214.729 730.51C214.609 730.73 214.549 730.997 214.549 731.31C214.549 731.617 214.609 731.883 214.729 732.11C214.849 732.33 215.012 732.5 215.219 732.62C215.426 732.74 215.659 732.8 215.919 732.8ZM220.447 736.02C220.167 736.02 219.89 735.977 219.617 735.89C219.344 735.803 219.12 735.683 218.947 735.53L219.517 734.42C219.637 734.527 219.774 734.61 219.927 734.67C220.087 734.73 220.244 734.76 220.397 734.76C220.617 734.76 220.79 734.707 220.917 734.6C221.05 734.5 221.17 734.33 221.277 734.09L221.557 733.43L221.677 733.26L223.607 728.62H225.107L222.677 734.33C222.504 734.763 222.304 735.103 222.077 735.35C221.857 735.597 221.61 735.77 221.337 735.87C221.07 735.97 220.774 736.02 220.447 736.02ZM221.367 734.21L218.967 728.62H220.577L222.437 733.12L221.367 734.21ZM230.845 734.08C230.399 734.08 229.999 733.993 229.645 733.82C229.299 733.647 229.029 733.383 228.835 733.03C228.642 732.67 228.545 732.213 228.545 731.66V728.62H230.105V731.43C230.105 731.877 230.199 732.207 230.385 732.42C230.579 732.627 230.849 732.73 231.195 732.73C231.435 732.73 231.649 732.68 231.835 732.58C232.022 732.473 232.169 732.313 232.275 732.1C232.382 731.88 232.435 731.607 232.435 731.28V728.62H233.995V734H232.515V732.52L232.785 732.95C232.605 733.323 232.339 733.607 231.985 733.8C231.639 733.987 231.259 734.08 230.845 734.08ZM237.251 734.08C236.791 734.08 236.347 734.027 235.921 733.92C235.501 733.807 235.167 733.667 234.921 733.5L235.441 732.38C235.687 732.533 235.977 732.66 236.311 732.76C236.651 732.853 236.984 732.9 237.311 732.9C237.671 732.9 237.924 732.857 238.071 732.77C238.224 732.683 238.301 732.563 238.301 732.41C238.301 732.283 238.241 732.19 238.121 732.13C238.007 732.063 237.854 732.013 237.661 731.98C237.467 731.947 237.254 731.913 237.021 731.88C236.794 731.847 236.564 731.803 236.331 731.75C236.097 731.69 235.884 731.603 235.691 731.49C235.497 731.377 235.341 731.223 235.221 731.03C235.107 730.837 235.051 730.587 235.051 730.28C235.051 729.94 235.147 729.64 235.341 729.38C235.541 729.12 235.827 728.917 236.201 728.77C236.574 728.617 237.021 728.54 237.541 728.54C237.907 728.54 238.281 728.58 238.661 728.66C239.041 728.74 239.357 728.857 239.611 729.01L239.091 730.12C238.831 729.967 238.567 729.863 238.301 729.81C238.041 729.75 237.787 729.72 237.541 729.72C237.194 729.72 236.941 729.767 236.781 729.86C236.621 729.953 236.541 730.073 236.541 730.22C236.541 730.353 236.597 730.453 236.711 730.52C236.831 730.587 236.987 730.64 237.181 730.68C237.374 730.72 237.584 730.757 237.811 730.79C238.044 730.817 238.277 730.86 238.511 730.92C238.744 730.98 238.954 731.067 239.141 731.18C239.334 731.287 239.491 731.437 239.611 731.63C239.731 731.817 239.791 732.063 239.791 732.37C239.791 732.703 239.691 733 239.491 733.26C239.291 733.513 239.001 733.713 238.621 733.86C238.247 734.007 237.791 734.08 237.251 734.08ZM242.953 734.08C242.32 734.08 241.827 733.92 241.473 733.6C241.12 733.273 240.943 732.79 240.943 732.15V727.43H242.503V732.13C242.503 732.357 242.563 732.533 242.683 732.66C242.803 732.78 242.967 732.84 243.173 732.84C243.42 732.84 243.63 732.773 243.803 732.64L244.223 733.74C244.063 733.853 243.87 733.94 243.643 734C243.423 734.053 243.193 734.08 242.953 734.08ZM240.113 729.94V728.74H243.843V729.94H240.113ZM248.399 734V732.95L248.299 732.72V730.84C248.299 730.507 248.196 730.247 247.989 730.06C247.789 729.873 247.479 729.78 247.059 729.78C246.772 729.78 246.489 729.827 246.209 729.92C245.936 730.007 245.702 730.127 245.509 730.28L244.949 729.19C245.242 728.983 245.596 728.823 246.009 728.71C246.422 728.597 246.842 728.54 247.269 728.54C248.089 728.54 248.726 728.733 249.179 729.12C249.632 729.507 249.859 730.11 249.859 730.93V734H248.399ZM246.759 734.08C246.339 734.08 245.979 734.01 245.679 733.87C245.379 733.723 245.149 733.527 244.989 733.28C244.829 733.033 244.749 732.757 244.749 732.45C244.749 732.13 244.826 731.85 244.979 731.61C245.139 731.37 245.389 731.183 245.729 731.05C246.069 730.91 246.512 730.84 247.059 730.84H248.489V731.75H247.229C246.862 731.75 246.609 731.81 246.469 731.93C246.336 732.05 246.269 732.2 246.269 732.38C246.269 732.58 246.346 732.74 246.499 732.86C246.659 732.973 246.876 733.03 247.149 733.03C247.409 733.03 247.642 732.97 247.849 732.85C248.056 732.723 248.206 732.54 248.299 732.3L248.539 733.02C248.426 733.367 248.219 733.63 247.919 733.81C247.619 733.99 247.232 734.08 246.759 734.08ZM252.403 734L250.463 728.62H251.933L253.543 733.25H252.843L254.523 728.62H255.843L257.473 733.25H256.773L258.433 728.62H259.813L257.863 734H256.353L254.923 730.03H255.383L253.903 734H252.403ZM260.538 734V728.62H262.098V734H260.538ZM261.318 727.87C261.032 727.87 260.798 727.787 260.618 727.62C260.438 727.453 260.348 727.247 260.348 727C260.348 726.753 260.438 726.547 260.618 726.38C260.798 726.213 261.032 726.13 261.318 726.13C261.605 726.13 261.838 726.21 262.018 726.37C262.198 726.523 262.288 726.723 262.288 726.97C262.288 727.23 262.198 727.447 262.018 727.62C261.845 727.787 261.612 727.87 261.318 727.87ZM266.146 734.08C265.566 734.08 265.05 733.963 264.596 733.73C264.143 733.49 263.786 733.16 263.526 732.74C263.273 732.32 263.146 731.843 263.146 731.31C263.146 730.77 263.273 730.293 263.526 729.88C263.786 729.46 264.143 729.133 264.596 728.9C265.05 728.66 265.566 728.54 266.146 728.54C266.713 728.54 267.206 728.66 267.626 728.9C268.046 729.133 268.356 729.47 268.556 729.91L267.346 730.56C267.206 730.307 267.03 730.12 266.816 730C266.61 729.88 266.383 729.82 266.136 729.82C265.87 729.82 265.63 729.88 265.416 730C265.203 730.12 265.033 730.29 264.906 730.51C264.786 730.73 264.726 730.997 264.726 731.31C264.726 731.623 264.786 731.89 264.906 732.11C265.033 732.33 265.203 732.5 265.416 732.62C265.63 732.74 265.87 732.8 266.136 732.8C266.383 732.8 266.61 732.743 266.816 732.63C267.03 732.51 267.206 732.32 267.346 732.06L268.556 732.72C268.356 733.153 268.046 733.49 267.626 733.73C267.206 733.963 266.713 734.08 266.146 734.08ZM265.046 727.93L266.396 726.49H268.076L266.266 727.93H265.046Z" fill="#F7FFF7"/>
<path d="M62.0009 778.457C61.9772 779.009 62.4053 779.475 62.9571 779.499L71.9488 779.885C72.5006 779.909 72.9671 779.481 72.9908 778.929C73.0145 778.377 72.5864 777.911 72.0346 777.887L64.042 777.544L64.3851 769.551C64.4088 768.999 63.9807 768.533 63.4289 768.509C62.8771 768.486 62.4106 768.914 62.3869 769.465L62.0009 778.457ZM142.222 733.039C125.204 737.963 112.214 742.721 99.9749 749.473C87.7349 756.225 76.2874 764.949 62.3239 777.763L63.6761 779.237C77.5715 766.485 88.8885 757.873 100.941 751.224C112.995 744.574 125.825 739.865 142.778 734.961L142.222 733.039Z" fill="#F7FFF7"/>
<path d="M358.999 772.966C359.018 773.518 358.586 773.98 358.034 773.999L349.04 774.308C348.488 774.327 348.025 773.895 348.006 773.343C347.987 772.791 348.419 772.329 348.971 772.31L356.966 772.035L356.692 764.04C356.673 763.488 357.105 763.025 357.657 763.006C358.209 762.987 358.671 763.419 358.69 763.971L358.999 772.966ZM286.282 731.041C301.699 735.578 313.472 739.965 324.565 746.191C335.66 752.417 346.033 760.46 358.682 772.269L357.318 773.731C344.736 761.985 334.493 754.056 323.586 747.935C312.679 741.813 301.067 737.477 285.718 732.959L286.282 731.041Z" fill="#F7FFF7"/>
</g>
<defs>
<clipPath id="clip0_546_168">
<rect width="430" height="932" fill="white"/>
</clipPath>
</defs>
</svg>
